<svg width="36" height="32" viewBox="0 0 36 32" fill="none" xmlns="http://www.w3.org/2000/svg">
<path d="M35.0187 17.0427C34.6153 16.3438 33.9613 15.8431 33.1772 15.633C32.393 15.4229 31.5764 15.5294 30.8776 15.9329L22.6059 20.7084C22.5089 19.351 21.5709 18.1382 20.1853 17.761L10.9526 15.2481C10.9287 15.2416 10.9044 15.2367 10.8798 15.2335C9.50545 15.0515 8.25093 15.3865 7.15102 16.229L4.60015 18.1825L4.46984 17.6963C4.39396 17.4131 4.21186 17.1762 3.95728 17.0291C3.70248 16.8821 3.40642 16.8429 3.12324 16.9187L0.926384 17.5073C0.340769 17.6642 -0.00798268 18.2683 0.148911 18.854L3.33379 30.74C3.40967 31.0232 3.5917 31.2602 3.84643 31.4073C4.01627 31.5054 4.20459 31.5554 4.39521 31.5554C4.49041 31.5554 4.58616 31.5429 4.68047 31.5177L6.87725 30.9291C7.46286 30.7722 7.81162 30.1681 7.65472 29.5824L7.52012 29.0801C8.86258 28.0609 10.0931 27.7721 11.5889 28.1152L16.8772 29.3275C17.3409 29.4338 17.7867 29.4871 18.2174 29.4871C19.0957 29.4871 19.9109 29.2653 20.6841 28.8189L33.9091 21.1837C35.3565 20.348 35.8542 18.4904 35.0187 17.0427ZM4.40171 30.4456L1.22106 18.5753L3.40192 17.9909L6.58257 29.8612L4.40171 30.4456ZM33.3552 20.2242L20.1302 27.8595C19.2316 28.3784 18.2483 28.5055 17.1248 28.2477L11.8365 27.0354C10.1475 26.6483 8.69571 26.9258 7.21354 27.936L4.91034 19.3403L7.82456 17.1085C8.68533 16.4491 9.62572 16.1932 10.6986 16.327L19.8943 18.8299C21.0579 19.1467 21.7468 20.3509 21.4302 21.5144C21.1134 22.6778 19.9096 23.3667 18.7457 23.0501L13.8139 21.7078C13.5189 21.6276 13.2144 21.8017 13.1341 22.0968C13.0537 22.3919 13.2278 22.6964 13.5231 22.7767L18.4549 24.119C18.7434 24.1975 19.0336 24.235 19.3192 24.235C20.667 24.235 21.9125 23.4 22.4012 22.1056L31.4315 16.8922C31.874 16.6367 32.3919 16.5694 32.8904 16.7029C33.3886 16.8365 33.8037 17.1537 34.0592 17.5963C34.5895 18.5152 34.2737 19.694 33.3552 20.2242ZM7.68297 12.4735H15.4311C15.3388 12.8839 15.2883 13.3101 15.2883 13.7481C15.2883 14.054 15.5364 14.302 15.8422 14.302H26.3389C26.6448 14.302 26.8928 14.054 26.8928 13.7481C26.8928 13.3101 26.8424 12.8839 26.75 12.4735H34.4981C34.804 12.4735 35.052 12.2255 35.052 11.9196C35.052 9.45469 33.5064 7.34528 31.3339 6.50605C32.1282 5.88499 32.6403 4.91884 32.6403 3.83478C32.6403 1.96529 31.1193 0.444336 29.2498 0.444336C27.3803 0.444336 25.8593 1.96529 25.8593 3.83478C25.8593 4.92022 26.3727 5.88741 27.1685 6.50841C25.986 6.9669 24.9671 7.80731 24.293 8.91297C23.9448 8.68151 23.57 8.48736 23.1746 8.33463C23.9688 7.71356 24.4809 6.74741 24.4809 5.66336C24.4809 3.79386 22.96 2.27291 21.0905 2.27291C19.221 2.27291 17.7 3.79386 17.7 5.66336C17.7 6.74741 18.2121 7.71356 19.0064 8.33463C18.611 8.48736 18.2362 8.68158 17.888 8.91297C17.2139 7.80724 16.1949 6.9669 15.0124 6.50834C15.8084 5.88734 16.3217 4.92016 16.3217 3.83478C16.3217 1.96529 14.8007 0.444336 12.9312 0.444336C11.0617 0.444336 9.54083 1.96522 9.54083 3.83471C9.54083 4.91884 10.0529 5.88492 10.8471 6.50598C8.67474 7.34521 7.12907 9.45462 7.12907 11.9195C7.12907 12.2255 7.37708 12.4735 7.68297 12.4735ZM26.9671 3.83471C26.9671 2.57603 27.991 1.55207 29.2497 1.55207C30.5084 1.55207 31.5324 2.5761 31.5324 3.83471C31.5324 5.09332 30.5084 6.11735 29.2497 6.11735C27.991 6.11735 26.9671 5.09339 26.9671 3.83471ZM29.2497 7.22516C31.6509 7.22516 33.6368 9.03718 33.9117 11.3657H26.379C26.0824 10.71 25.6684 10.1187 25.1624 9.61961C25.993 8.15322 27.5562 7.22516 29.2497 7.22516ZM18.8079 5.66322C18.8079 4.40454 19.8319 3.38058 21.0906 3.38058C22.3492 3.38058 23.3732 4.40461 23.3732 5.66322C23.3732 6.92182 22.3492 7.94585 21.0906 7.94585C19.8319 7.94585 18.8079 6.92189 18.8079 5.66322ZM25.7524 13.1942H16.4286C16.7035 10.8658 18.6893 9.05366 21.0905 9.05366C23.4917 9.05366 25.4775 10.8658 25.7524 13.1942ZM12.9313 1.55207C14.19 1.55207 15.2139 2.5761 15.2139 3.83471C15.2139 5.09332 14.19 6.11735 12.9313 6.11735C11.6726 6.11735 10.6486 5.09339 10.6486 3.83471C10.6486 2.57603 11.6726 1.55207 12.9313 1.55207ZM12.9313 7.22516C14.6248 7.22516 16.1881 8.15322 17.0186 9.61961C16.5127 10.1187 16.0986 10.71 15.8021 11.3657H8.26935C8.54422 9.03718 10.5302 7.22516 12.9313 7.22516Z" fill="white"/>
</svg>
