<svg width="32" height="32" viewBox="0 0 32 32" fill="none" xmlns="http://www.w3.org/2000/svg">
<path d="M31.0998 24.8238C31.3516 24.8238 31.5556 24.6197 31.5556 24.368V23.6696C31.5556 22.4097 30.7517 21.2983 29.5548 20.904L26.7064 19.9668V18.9806C27.6983 18.3855 28.3637 17.2998 28.3637 16.0614V14.0972C28.3637 12.2213 26.8375 10.6951 24.9616 10.6951C23.8567 10.6951 22.8735 11.225 22.2516 12.0435C21.9074 11.3976 21.3236 10.8938 20.5928 10.6537L17.7447 9.71603V8.72983C18.7365 8.13477 19.402 7.04909 19.402 5.81066V3.8464C19.402 1.97049 17.8759 0.444336 16 0.444336C14.124 0.444336 12.5979 1.97049 12.5979 3.8464V5.8106C12.5979 7.04903 13.2633 8.1347 14.2552 8.72977V9.71597L11.4073 10.6536C10.6763 10.8938 10.0925 11.3976 9.7483 12.0435C9.12644 11.2249 8.14321 10.6951 7.03828 10.6951C5.16237 10.6951 3.63621 12.2213 3.63621 14.0972V16.0614C3.63621 17.2998 4.30164 18.3855 5.2935 18.9806V19.9668L2.44481 20.904C1.24825 21.2983 0.444336 22.4097 0.444336 23.6696V24.368C0.444336 24.6197 0.648321 24.8238 0.900067 24.8238C1.15181 24.8238 1.3558 24.6197 1.3558 24.368V23.6696C1.3558 22.8041 1.90808 22.0406 2.72986 21.7698L5.39807 20.8918C5.64192 21.5617 6.28504 22.0414 7.03822 22.0414C7.79133 22.0414 8.43445 21.5616 8.6783 20.8918L11.3461 21.7696C11.9309 21.9624 12.3841 22.4063 12.5936 22.9689L11.407 23.3595C10.2102 23.7533 9.40601 24.8646 9.40601 26.1245V26.6542H3.93384V25.514C3.93384 25.2623 3.72985 25.0582 3.47811 25.0582C3.22636 25.0582 3.02238 25.2623 3.02238 25.514V26.6542H1.3558V26.4968C1.3558 26.2451 1.15181 26.0411 0.900067 26.0411C0.648321 26.0411 0.444336 26.2451 0.444336 26.4968V27.1099C0.444336 27.3616 0.648321 27.5657 0.900067 27.5657H9.40601V31.0997C9.40601 31.3514 9.61 31.5554 9.86174 31.5554H22.1381C22.3898 31.5554 22.5938 31.3514 22.5938 31.0997V30.491C22.5938 30.2393 22.3898 30.0353 22.1381 30.0353C21.8864 30.0353 21.6824 30.2393 21.6824 30.491V30.6441H20.0159V27.9694C20.0159 27.7177 19.8119 27.5137 19.5601 27.5137C19.3084 27.5137 19.1044 27.7177 19.1044 27.9694V30.6441H12.8955V27.9694C12.8955 27.7177 12.6915 27.5137 12.4398 27.5137C12.188 27.5137 11.9841 27.7177 11.9841 27.9694V30.6441H10.3175V26.1247C10.3175 25.2592 10.8698 24.4959 11.692 24.2253L14.3599 23.3473C14.6038 24.0171 15.2468 24.4968 16 24.4968C16.7531 24.4968 17.3961 24.0172 17.64 23.3473L20.3079 24.2253C21.1301 24.4959 21.6824 25.2592 21.6824 26.1247V28.3633C21.6824 28.615 21.8864 28.8191 22.1382 28.8191C22.3899 28.8191 22.5939 28.615 22.5939 28.3633V27.5658H31.0998C31.3516 27.5658 31.5556 27.3617 31.5556 27.1101V26.497C31.5556 26.2453 31.3516 26.0412 31.0998 26.0412C30.8481 26.0412 30.6441 26.2453 30.6441 26.497V26.6543H28.9775V25.5141C28.9775 25.2624 28.7735 25.0584 28.5218 25.0584C28.2701 25.0584 28.0661 25.2624 28.0661 25.5141V26.6543H22.5938V26.1247C22.5938 24.8646 21.7897 23.7535 20.5928 23.3596L19.4062 22.9691C19.6158 22.4065 20.0688 21.9626 20.6535 21.7698L23.3215 20.8919C23.5654 21.5618 24.2085 22.0415 24.9616 22.0415C25.7148 22.0415 26.3579 21.5618 26.6018 20.8919L29.2697 21.7698C30.0918 22.0406 30.6441 22.8041 30.6441 23.6696V24.368C30.6441 24.6197 30.8481 24.8238 31.0998 24.8238ZM24.9616 11.6065C26.335 11.6065 27.4522 12.7238 27.4522 14.0971V16.0613C27.4522 17.4347 26.3349 18.5519 24.9616 18.5519C23.5884 18.5519 22.4711 17.4347 22.4711 16.0613V14.0971C22.4711 12.7238 23.5884 11.6065 24.9616 11.6065ZM13.5094 5.8106V3.8464C13.5094 2.47307 14.6266 1.3558 16 1.3558C17.3733 1.3558 18.4906 2.47307 18.4906 3.8464V5.8106C18.4906 7.18393 17.3732 8.3012 16 8.3012C14.6267 8.3012 13.5094 7.18393 13.5094 5.8106ZM16 9.21266C16.2874 9.21266 16.5665 9.17651 16.8333 9.10906V10.0337C16.8331 10.038 16.8332 10.0423 16.8333 10.0465C16.8329 10.5057 16.4593 10.8792 16 10.8792C15.5408 10.8792 15.1671 10.5057 15.1668 10.0465C15.1668 10.0422 15.1668 10.038 15.1668 10.0337V9.10906C15.4334 9.17644 15.7125 9.21266 16 9.21266ZM11.6921 11.5194L14.3598 10.6411C14.6037 11.311 15.2468 11.7906 15.9999 11.7906C16.753 11.7906 17.3961 11.311 17.64 10.6411L20.308 11.5195C21.0698 11.7697 21.5981 12.4369 21.6719 13.23C21.5988 13.5069 21.5595 13.7975 21.5595 14.0971V16.0613C21.5595 16.1768 21.5654 16.2909 21.5767 16.4034H19.3981C19.3199 14.5964 17.8258 13.1503 15.9998 13.1503C14.1739 13.1503 12.6798 14.5964 12.6015 16.4034H10.423C10.4343 16.2909 10.4402 16.1768 10.4402 16.0613V14.0971C10.4402 13.7975 10.4008 13.507 10.3277 13.23C10.4017 12.4369 10.93 11.7698 11.6921 11.5194ZM16 21.0072C14.6266 21.0072 13.5094 19.8899 13.5094 18.5166V16.5524C13.5094 15.179 14.6267 14.0618 16 14.0618C17.3732 14.0618 18.4906 15.179 18.4906 16.5524V18.5166C18.4906 19.8899 17.3733 21.0072 16 21.0072ZM4.54762 16.0613V14.0971C4.54762 12.7238 5.66495 11.6065 7.03822 11.6065C8.41149 11.6065 9.52876 12.7238 9.52876 14.0971V16.0613C9.52876 17.4347 8.41149 18.5519 7.03822 18.5519C5.66495 18.5519 4.54762 17.4347 4.54762 16.0613ZM7.87147 20.2966C7.87147 20.7561 7.49771 21.1299 7.03822 21.1299C6.57872 21.1299 6.2049 20.7561 6.2049 20.2966V19.3598C6.47165 19.4272 6.75074 19.4634 7.03822 19.4634C7.32563 19.4634 7.60472 19.4272 7.87147 19.3598V20.2966ZM11.6313 20.904L8.783 19.9668V18.9805C9.42035 18.5981 9.9222 18.0129 10.2 17.3149H12.5979V18.5166C12.5979 19.755 13.2633 20.8407 14.2552 21.4357V22.4221L13.4592 22.6841C13.1598 21.849 12.4944 21.1885 11.6313 20.904ZM16 23.5853C15.5405 23.5853 15.1666 23.2114 15.1666 22.7519V22.7464C15.1666 22.7455 15.1666 22.7446 15.1666 22.7437V21.8151C15.4334 21.8825 15.7125 21.9187 16 21.9187C16.2874 21.9187 16.5665 21.8825 16.8333 21.8151V22.7437V22.7464V22.7519C16.8333 23.2114 16.4594 23.5853 16 23.5853ZM20.3685 20.904C19.5055 21.1885 18.8401 21.849 18.5407 22.6841L17.7447 22.4222V21.4358C18.7366 20.8407 19.402 19.7551 19.402 18.5166V17.3149H21.7999C22.0777 18.0129 22.5796 18.5982 23.2169 18.9805V19.9668L20.3685 20.904ZM24.9616 21.13C24.5021 21.13 24.1284 20.7561 24.1284 20.2967V19.3598C24.3951 19.4273 24.6742 19.4634 24.9616 19.4634C25.249 19.4634 25.5281 19.4273 25.7949 19.3598V20.2967C25.7949 20.7561 25.4211 21.13 24.9616 21.13Z" fill="white"/>
</svg>
