<svg width="35" height="32" viewBox="0 0 35 32" fill="none" xmlns="http://www.w3.org/2000/svg">
<path d="M17.7921 9.06994C18.8904 9.06994 19.943 8.51641 20.7559 7.51176C21.4983 6.59428 21.924 5.43708 21.924 4.33581C21.924 2.1173 20.1479 0.444336 17.7921 0.444336C15.4363 0.444336 13.6602 2.11512 13.6602 4.33581C13.6602 5.43708 14.0858 6.59428 14.8283 7.51176C15.6411 8.51713 16.6937 9.06994 17.7921 9.06994ZM17.7921 1.64294C19.4919 1.64294 20.7254 2.77544 20.7254 4.33581C20.7254 6.29717 19.1207 7.87134 17.7921 7.87134C16.1671 7.87134 14.8588 5.93686 14.8588 4.33581C14.8588 2.77835 16.0922 1.64294 17.7921 1.64294Z" fill="white"/>
<path d="M12.9026 14.8219L12.482 20.8214C12.4764 20.9 12.4864 20.9788 12.5113 21.0534C12.5363 21.1281 12.5757 21.1971 12.6273 21.2565C12.6789 21.316 12.7417 21.3647 12.8121 21.3998C12.8825 21.435 12.9592 21.4559 13.0377 21.4614H13.0798C13.2314 21.4613 13.3773 21.4037 13.4882 21.3004C13.5992 21.197 13.6668 21.0555 13.6777 20.9043L14.0983 14.9098C14.1038 14.8313 14.0938 14.7524 14.0689 14.6778C14.0439 14.6031 14.0045 14.5341 13.9529 14.4747C13.9013 14.4153 13.8385 14.3666 13.7681 14.3314C13.6977 14.2963 13.621 14.2753 13.5425 14.2698C13.464 14.2643 13.3852 14.2742 13.3105 14.2992C13.2359 14.3241 13.1669 14.3635 13.1075 14.4151C13.048 14.4667 12.9993 14.5295 12.9642 14.5999C12.929 14.6703 12.9081 14.747 12.9026 14.8255V14.8219Z" fill="white"/>
<path d="M25.9206 21.4607C26.0832 21.4463 26.2335 21.368 26.3385 21.243C26.4435 21.118 26.4946 20.9565 26.4807 20.7938C26.4807 20.7938 25.8472 16.2515 25.7543 14.7274C25.5821 11.991 23.9106 9.79569 21.2991 9.39615C20.3809 9.25522 18.713 9.14916 17.8413 9.14844C16.6513 9.16905 15.4632 9.25125 14.2818 9.3947C13.0569 9.56238 11.9351 10.1705 11.1262 11.1054C10.2763 12.0868 9.89634 13.3414 9.81861 14.7303C9.73144 16.2558 9.15393 20.8003 9.15393 20.8003C9.1442 20.8791 9.15022 20.9591 9.17164 21.0355C9.19306 21.1119 9.22946 21.1834 9.27871 21.2456C9.32796 21.3079 9.3891 21.3597 9.45856 21.3982C9.52802 21.4366 9.60442 21.4609 9.68333 21.4695C9.76224 21.4782 9.84209 21.4711 9.91823 21.4486C9.99438 21.4262 10.0653 21.3888 10.1269 21.3387C10.1885 21.2886 10.2395 21.2268 10.277 21.1568C10.3145 21.0868 10.3377 21.0101 10.3453 20.9311C10.3453 20.9311 10.9315 16.3372 11.015 14.7964C11.1342 12.6128 12.4265 10.8577 14.4452 10.5831C15.572 10.4463 16.705 10.3677 17.8398 10.3478C18.652 10.3478 20.2639 10.4509 21.1168 10.5817C22.0544 10.7236 22.9117 11.1924 23.5372 11.9052C24.2026 12.6694 24.491 13.6959 24.5542 14.8C24.6465 16.343 25.2901 20.9376 25.2901 20.9376C25.3134 21.0867 25.3903 21.2221 25.5064 21.3184C25.6225 21.4147 25.7698 21.4653 25.9206 21.4607Z" fill="white"/>
<path d="M22.024 14.2662C21.9451 14.2716 21.8681 14.2926 21.7973 14.328C21.7265 14.3633 21.6635 14.4123 21.6118 14.4721C21.56 14.532 21.5207 14.6015 21.4959 14.6766C21.4712 14.7517 21.4615 14.831 21.4676 14.9098L21.8889 20.9087C21.8994 21.06 21.9668 21.2016 22.0776 21.3052C22.1884 21.4087 22.3344 21.4664 22.486 21.4666H22.5289C22.6874 21.4552 22.8349 21.3815 22.9391 21.2615C23.0432 21.1415 23.0956 20.9851 23.0846 20.8266L22.6633 14.827C22.6582 14.7482 22.6376 14.6711 22.6027 14.6003C22.5678 14.5294 22.5193 14.4661 22.4599 14.414C22.4006 14.362 22.3315 14.3221 22.2567 14.2967C22.1819 14.2714 22.1028 14.261 22.024 14.2662Z" fill="white"/>
<path d="M21.6167 26.8873L24.4991 24.0775C24.5792 23.9995 24.6358 23.9006 24.6626 23.792C24.6893 23.6835 24.6852 23.5696 24.6507 23.4633C24.6162 23.357 24.5526 23.2624 24.4671 23.1904C24.3817 23.1183 24.2778 23.0715 24.1672 23.0554L20.1842 22.4743L18.403 18.8676C18.3535 18.7672 18.2769 18.6827 18.1819 18.6236C18.0869 18.5645 17.9773 18.5332 17.8654 18.5332C17.7535 18.5332 17.6439 18.5645 17.5489 18.6236C17.4539 18.6827 17.3773 18.7672 17.3278 18.8676L15.5466 22.4765L11.5636 23.0576C11.453 23.0737 11.3491 23.1205 11.2637 23.1925C11.1782 23.2646 11.1146 23.3592 11.0801 23.4655C11.0456 23.5718 11.0415 23.6857 11.0682 23.7942C11.095 23.9028 11.1516 24.0016 11.2317 24.0797L14.1141 26.8895L13.4342 30.8536C13.4149 30.9641 13.4271 31.0779 13.4693 31.1818C13.5115 31.2858 13.582 31.3758 13.6728 31.4416C13.7637 31.5075 13.8712 31.5465 13.9831 31.5543C14.095 31.5621 14.2068 31.5383 14.3059 31.4856L17.8654 29.6129L21.4249 31.4856C21.511 31.5307 21.6067 31.5544 21.7038 31.5546C21.7911 31.5545 21.8773 31.5353 21.9564 31.4985C22.0355 31.4616 22.1056 31.4079 22.1618 31.3412C22.2181 31.2745 22.2591 31.1963 22.282 31.112C22.3049 31.0278 22.3091 30.9396 22.2944 30.8536L21.6167 26.8873ZM17.5864 28.4056C16.8905 28.7601 14.8202 29.8584 14.8202 29.8584L15.3483 26.7776C15.3647 26.6819 15.3577 26.5836 15.3277 26.4912C15.2977 26.3989 15.2457 26.3152 15.1762 26.2473L12.938 24.0681L16.0312 23.6184C16.1273 23.6044 16.2185 23.5672 16.2971 23.5102C16.3757 23.4531 16.4392 23.3778 16.4823 23.2908L17.8625 20.4875L19.2427 23.2908C19.2858 23.3778 19.3493 23.4531 19.4279 23.5102C19.5065 23.5672 19.5977 23.6044 19.6938 23.6184L22.7869 24.0681L20.5488 26.2473C20.4793 26.3152 20.4273 26.3989 20.3973 26.4912C20.3673 26.5836 20.3602 26.6819 20.3767 26.7776L20.9048 29.8584C20.9048 29.8584 18.8345 28.7586 18.1385 28.4056C18.0537 28.3598 17.9589 28.3358 17.8625 28.3358C17.7661 28.3358 17.6713 28.3598 17.5864 28.4056Z" fill="white"/>
<path d="M34.3282 24.8769L31.416 24.4534L30.1135 21.815C30.0642 21.7146 29.9877 21.6301 29.8927 21.5709C29.7978 21.5118 29.6882 21.4805 29.5763 21.4805C29.4645 21.4805 29.3548 21.5118 29.2599 21.5709C29.1649 21.6301 29.0885 21.7146 29.0391 21.815L27.7366 24.4534L24.8244 24.8769C24.7138 24.893 24.6098 24.9398 24.5244 25.0119C24.439 25.0839 24.3754 25.1785 24.3408 25.2848C24.3063 25.3911 24.3022 25.505 24.329 25.6135C24.3558 25.7221 24.4124 25.8209 24.4924 25.899L26.599 27.9533L26.1014 30.8532C26.0822 30.9637 26.0944 31.0775 26.1365 31.1814C26.1787 31.2854 26.2493 31.3754 26.3401 31.4412C26.4309 31.5071 26.5384 31.5461 26.6503 31.5539C26.7622 31.5617 26.8741 31.5379 26.9732 31.4852L29.5774 30.1159L32.1824 31.4852C32.2685 31.5303 32.3641 31.554 32.4613 31.5542C32.5486 31.5541 32.6348 31.5349 32.7139 31.4981C32.793 31.4612 32.8631 31.4075 32.9193 31.3408C32.9755 31.2741 33.0165 31.1959 33.0394 31.1116C33.0623 31.0274 33.0666 30.9392 33.0519 30.8532L32.5543 27.9533L34.6609 25.899C34.741 25.8209 34.7976 25.7221 34.8244 25.6135C34.8511 25.505 34.847 25.3911 34.8125 25.2848C34.778 25.1785 34.7144 25.0839 34.6289 25.0119C34.5435 24.9398 34.4396 24.893 34.329 24.8769H34.3282ZM29.2977 28.9086C28.8408 29.1381 27.4882 29.8595 27.4882 29.8595L27.834 27.8451C27.8504 27.7494 27.8433 27.6511 27.8133 27.5587C27.7833 27.4663 27.7313 27.3826 27.6618 27.3148L26.1981 25.8881L28.2204 25.5975C28.3167 25.5836 28.408 25.5464 28.4866 25.4892C28.5652 25.432 28.6287 25.3565 28.6715 25.2692L29.5759 23.4371L30.4803 25.2692C30.5234 25.3564 30.5871 25.4319 30.6658 25.489C30.7445 25.5462 30.8359 25.5835 30.9322 25.5975L32.9538 25.8881L31.4908 27.3148C31.4212 27.3825 31.3691 27.4662 31.3391 27.5586C31.3091 27.651 31.3021 27.7494 31.3186 27.8451L31.6673 29.8595C31.6673 29.8595 30.3154 29.1381 29.8585 28.9086C29.7723 28.8622 29.676 28.8379 29.5781 28.8379C29.4802 28.8379 29.3839 28.8622 29.2977 28.9086Z" fill="white"/>
<path d="M10.9054 24.8769L7.99313 24.4534L6.69065 21.815C6.64131 21.7146 6.56483 21.6301 6.46988 21.5709C6.37493 21.5118 6.26531 21.4805 6.15345 21.4805C6.0416 21.4805 5.93198 21.5118 5.83703 21.5709C5.74208 21.6301 5.6656 21.7146 5.61626 21.815L4.31378 24.4534L1.40153 24.8769C1.2909 24.893 1.187 24.9398 1.10155 25.0119C1.0161 25.0839 0.952519 25.1785 0.917985 25.2848C0.883451 25.3911 0.879343 25.505 0.906126 25.6135C0.93291 25.7221 0.989516 25.8209 1.06955 25.899L3.17619 27.9533L2.68222 30.8532C2.66297 30.9637 2.67514 31.0775 2.71733 31.1814C2.75952 31.2854 2.83004 31.3754 2.92087 31.4412C3.01169 31.5071 3.11918 31.5461 3.2311 31.5539C3.34302 31.5617 3.45487 31.5379 3.55393 31.4852L6.1589 30.1159L8.76315 31.4852C8.84924 31.5303 8.94492 31.554 9.0421 31.5542C9.12936 31.5541 9.21555 31.5349 9.29465 31.4981C9.37375 31.4612 9.44386 31.4075 9.50009 31.3408C9.55632 31.2741 9.59731 31.1959 9.62021 31.1116C9.64311 31.0274 9.64737 30.9392 9.63268 30.8532L9.13508 27.9533L11.2417 25.899C11.3218 25.8209 11.3784 25.7221 11.4051 25.6135C11.4319 25.505 11.4278 25.3911 11.3933 25.2848C11.3587 25.1785 11.2952 25.0839 11.2097 25.0119C11.1243 24.9398 11.0204 24.893 10.9097 24.8769H10.9054ZM5.8785 28.9086L4.06606 29.8595L4.41112 27.8451C4.42766 27.7494 4.42063 27.651 4.39064 27.5586C4.36064 27.4662 4.30857 27.3825 4.23895 27.3148L2.77593 25.8881L4.79758 25.5975C4.89385 25.5835 4.98527 25.5462 5.06397 25.489C5.14268 25.4319 5.20632 25.3564 5.24941 25.2692L6.15382 23.4371L7.05822 25.2692C7.10105 25.3565 7.16451 25.432 7.24312 25.4892C7.32173 25.5464 7.41311 25.5836 7.50933 25.5975L9.53171 25.8881L8.06796 27.3148C7.99844 27.3826 7.94644 27.4663 7.91645 27.5587C7.88646 27.6511 7.87937 27.7494 7.89579 27.8451L8.24157 29.8595L6.43204 28.9086C6.34872 28.8576 6.25295 28.8306 6.15527 28.8306C6.0576 28.8306 5.96182 28.8576 5.8785 28.9086Z" fill="white"/>
</svg>
