<svg width="140" height="47" viewBox="0 0 140 47" fill="none" xmlns="http://www.w3.org/2000/svg">
<path d="M17.25 36.8C14.05 36.8 11.2333 36.0333 8.8 34.5C6.36667 32.9667 4.45 30.8333 3.05 28.1C1.65 25.3667 0.95 22.1833 0.95 18.55C0.95 14.9167 1.65 11.75 3.05 9.05C4.45 6.31666 6.4 4.18333 8.9 2.65C11.4333 1.11666 14.35 0.349997 17.65 0.349997C21.35 0.349997 24.5333 1.28333 27.2 3.15C29.9 4.98333 31.8333 7.51666 33 10.75L26.9 13C26.1667 10.9667 25 9.38333 23.4 8.25C21.8333 7.11667 19.9167 6.55 17.65 6.55C15.5833 6.55 13.7667 7.03333 12.2 8C10.6667 8.96667 9.48333 10.35 8.65 12.15C7.85 13.9167 7.45 16.05 7.45 18.55C7.45 21.05 7.85 23.2 8.65 25C9.48333 26.8 10.6667 28.1833 12.2 29.15C13.7667 30.1167 15.5833 30.6 17.65 30.6C18.7167 30.6 19.8167 30.45 20.95 30.15C22.0833 29.85 23.1167 29.3333 24.05 28.6C25.0167 27.8333 25.7833 26.7833 26.35 25.45C26.95 24.1167 27.25 22.4167 27.25 20.35V18.35L28.7 22.85H18.7V17.05H33V36H27.3L26.4 30.35L27.5 31.2C26.9 32.4333 26.0833 33.4667 25.05 34.3C24.0167 35.1333 22.8333 35.75 21.5 36.15C20.2 36.5833 18.7833 36.8 17.25 36.8ZM44.5676 36.5C42.8676 36.5 41.4676 35.9833 40.3676 34.95C39.2676 33.9167 38.7176 32.2833 38.7176 30.05V1.15H44.8676V28.85C44.8676 29.55 45.0342 30.05 45.3676 30.35C45.7009 30.6167 46.1342 30.75 46.6676 30.75C46.9342 30.75 47.2176 30.7333 47.5176 30.7C47.8176 30.6333 48.1342 30.55 48.4676 30.45V35.75C47.7676 36.0167 47.0676 36.2 46.3676 36.3C45.7009 36.4333 45.1009 36.5 44.5676 36.5ZM52.6836 36V11.35H58.8836V36H52.6836ZM52.4836 7.55V1.15H59.1336V7.55H52.4836ZM64.9895 36V11.35H71.2395V17.75L69.8895 18.8C70.1228 17.2333 70.5228 15.9333 71.0895 14.9C71.6561 13.8667 72.3228 13.0667 73.0895 12.5C73.8895 11.9 74.7061 11.4833 75.5395 11.25C76.4061 10.9833 77.2561 10.85 78.0895 10.85C79.3895 10.85 80.6228 11.1 81.7895 11.6C82.9561 12.0667 83.9728 12.8833 84.8395 14.05C85.7061 15.2167 86.3061 16.8167 86.6395 18.85L82.9395 20.2C83.4395 17.8667 84.1561 16.0167 85.0895 14.65C86.0561 13.2833 87.1561 12.3167 88.3895 11.75C89.6561 11.15 90.9895 10.85 92.3895 10.85C94.4895 10.85 96.1895 11.3167 97.4895 12.25C98.7895 13.1833 99.7395 14.3833 100.339 15.85C100.973 17.2833 101.289 18.8167 101.289 20.45V36H95.0895V21.95C95.0895 20.7167 94.9228 19.6833 94.5895 18.85C94.2895 17.9833 93.8395 17.3333 93.2395 16.9C92.6395 16.4667 91.8561 16.25 90.8895 16.25C89.8895 16.25 89.0395 16.5167 88.3395 17.05C87.6395 17.5833 87.1061 18.3833 86.7395 19.45C86.4061 20.5167 86.2395 21.8833 86.2395 23.55V36H80.0395V21.85C80.0395 19.9833 79.6895 18.5833 78.9895 17.65C78.3228 16.7167 77.3395 16.25 76.0395 16.25C75.0061 16.25 74.1228 16.5167 73.3895 17.05C72.6895 17.5833 72.1561 18.3833 71.7895 19.45C71.4228 20.5167 71.2395 21.8833 71.2395 23.55V36H64.9895ZM108.445 46.2L113.445 34.1L104.145 11.35H110.945L116.745 27.9L122.645 11.35H129.345L115.195 46.2H108.445ZM132.852 36V29.4H139.452V36H132.852Z" fill="white"/>
</svg>
