<svg width="64" height="64" viewBox="0 0 64 64" fill="none" xmlns="http://www.w3.org/2000/svg">
<path d="M2.59861 39.1326C2.70498 39.1326 2.81311 39.1144 2.91873 39.076C3.40536 38.8992 3.65635 38.3614 3.4796 37.8748C2.41474 34.9452 1.87486 31.8637 1.87486 28.7157C1.87486 21.5463 4.66685 14.806 9.73632 9.73644C14.8058 4.66685 21.5461 1.87499 28.7156 1.87499C34.4707 1.87499 39.9563 3.66973 44.5795 7.06521C44.9967 7.37171 45.5835 7.28183 45.89 6.86459C46.1965 6.44734 46.1066 5.86059 45.6894 5.55409C40.742 1.92061 34.8725 0 28.7156 0C21.0453 0 13.8342 2.98698 8.41058 8.41058C2.98698 13.8342 0 21.0454 0 28.7156C0 32.0827 0.577872 35.3798 1.71749 38.5152C1.85599 38.896 2.21549 39.1326 2.59861 39.1326Z" fill="white"/>
<path d="M62.2423 24.3105L58.6351 20.7033C57.9811 20.0493 57.1113 19.689 56.1861 19.689C56.1187 19.689 56.0517 19.6915 55.985 19.6953C54.5994 15.5092 52.2355 11.6547 49.1138 8.50446C48.7494 8.13671 48.1558 8.13409 47.788 8.49846C47.4203 8.86283 47.4177 9.45645 47.782 9.8242C50.7061 12.7748 52.9182 16.3858 54.212 20.3065C54.0441 20.4235 53.8849 20.5554 53.7371 20.7031L52.4561 21.9841C51.088 17.1815 48.254 12.8469 44.3562 9.6447C39.9577 6.0311 34.4035 4.04099 28.7166 4.04099C15.111 4.04099 4.04203 15.1099 4.04203 28.7156C4.04203 34.3496 5.99952 39.8639 9.55375 44.2429C9.80387 44.551 10.2207 44.6682 10.5951 44.5356C10.9691 44.403 11.2191 44.049 11.2191 43.6521V40.5448C11.2191 39.9479 11.7047 39.4624 12.3016 39.4624C12.8991 39.4624 13.3852 39.948 13.3852 40.5448V48.6255C13.3852 49.2223 12.8991 49.708 12.3016 49.708H4.2209C3.62403 49.708 3.13854 49.2223 3.13854 48.6255C3.13854 48.0286 3.62416 47.5431 4.2209 47.5431H7.46826C7.83301 47.5431 8.16451 47.3316 8.31838 47.0009C8.47213 46.6701 8.42001 46.2802 8.18501 46.0014C7.06489 44.6727 6.07139 43.2319 5.23202 41.7186C4.9809 41.2659 4.4104 41.1025 3.95753 41.3536C3.50478 41.6048 3.34141 42.1754 3.59253 42.6281C4.17491 43.6779 4.82653 44.6952 5.5394 45.6681H4.2209C2.59029 45.6681 1.26367 46.9947 1.26367 48.6253C1.26367 50.2561 2.59029 51.5827 4.2209 51.5827H12.3016C13.933 51.5827 15.2601 50.2561 15.2601 48.6253V40.5448C15.2601 38.9142 13.933 37.5875 12.3016 37.5875C10.6709 37.5875 9.34425 38.9142 9.34425 40.5448V40.7201C7.11976 37.1314 5.91702 32.9601 5.91702 28.7157C5.91702 16.1439 16.1448 5.91597 28.7168 5.91597C33.9706 5.91597 39.1022 7.75471 43.1661 11.0934C47.0447 14.2799 49.7841 18.6775 50.9194 23.521L47.4875 26.9528C46.8335 27.6068 46.4733 28.4763 46.4733 29.4012C46.4733 30.3261 46.8335 31.1956 47.4875 31.8496L48.8345 33.1966C49.016 33.3776 49.055 33.6608 48.9291 33.8858C48.5831 34.5057 48.0144 35.4859 47.2698 36.6354C46.9883 37.0699 47.1124 37.6504 47.5469 37.9319C47.9815 38.2134 48.5619 38.0894 48.8434 37.6548C49.6156 36.4625 50.2066 35.444 50.5659 34.8003C50.9388 34.1333 50.9681 33.3441 50.6889 32.6661L59.3176 24.0374L60.9166 25.6364C62.0288 26.7487 62.4083 28.3665 61.9072 29.8578C59.1818 37.9528 52.631 45.3054 48.9686 48.9677C45.3063 52.6301 37.9537 59.1809 29.8593 61.9061C28.3674 62.4075 26.7496 62.0281 25.6373 60.9158L24.0383 59.3168L32.6671 50.688C33.3454 50.9672 34.1342 50.938 34.801 50.5653C36.8642 49.4128 40.7903 47.0147 43.9035 43.9027C44.6784 43.128 45.4627 42.2463 46.2348 41.2823C46.5584 40.8781 46.4932 40.2883 46.089 39.9646C45.6849 39.641 45.0949 39.7063 44.7714 40.1104C44.0422 41.0209 43.3042 41.8508 42.5781 42.577C39.5148 45.639 35.4795 48.0389 33.8864 48.9288C33.6621 49.0545 33.3787 49.0153 33.1969 48.833L31.8507 47.4869C31.1967 46.8329 30.3273 46.4726 29.4024 46.4726C28.4775 46.4726 27.608 46.8329 26.954 47.4869L20.7044 53.7363C20.0504 54.3903 19.6902 55.2601 19.6902 56.1854C19.6902 57.1107 20.0504 57.9804 20.7044 58.6344L24.3117 62.2418C25.4585 63.3886 26.974 64.0003 28.5325 64.0001C29.1743 64.0001 29.8236 63.8963 30.457 63.6834C33.067 62.8048 35.8247 61.4673 38.6536 59.7083C42.5592 57.2798 46.4758 54.1123 50.2944 50.2936C54.113 46.4749 57.2806 42.5584 59.7091 38.6528C61.4681 35.8239 62.8054 33.0662 63.6843 30.4557C64.4138 28.2842 63.8614 25.9295 62.2423 24.3105ZM49.4964 31.2069L48.8131 30.5237C48.5133 30.2238 48.3482 29.8252 48.3482 29.4012C48.3482 28.9772 48.5133 28.5785 48.8131 28.2786L55.0627 22.029C55.3626 21.7291 55.7615 21.564 56.186 21.564C56.6103 21.564 57.0093 21.7291 57.3092 22.029L57.9918 22.7116L49.4964 31.2069ZM21.5651 56.1849C21.5651 55.7604 21.7302 55.3616 22.0301 55.0617L28.2796 48.8121C28.5795 48.5122 28.9783 48.3471 29.4023 48.3471C29.8263 48.3471 30.225 48.5122 30.5249 48.8121L31.208 49.4952L22.7125 57.9907L22.0299 57.308C21.7302 57.0083 21.5651 56.6094 21.5651 56.1849Z" fill="white"/>
<path d="M29.6523 11.5434V9.01818C29.6523 8.50044 29.2326 8.08069 28.7148 8.08069C28.1971 8.08069 27.7773 8.50044 27.7773 9.01818V11.5434C27.7773 12.0612 28.1971 12.4809 28.7148 12.4809C29.2326 12.4809 29.6523 12.0612 29.6523 11.5434Z" fill="white"/>
<path d="M20.1326 14.7817C20.2916 14.7817 20.4529 14.741 20.6005 14.6559C21.0489 14.397 21.2025 13.8237 20.9436 13.3754L19.681 11.1885C19.422 10.7402 18.8485 10.5867 18.4005 10.8454C17.9521 11.1043 17.7985 11.6777 18.0574 12.1259L19.32 14.3128C19.4935 14.6134 19.8086 14.7817 20.1326 14.7817Z" fill="white"/>
<path d="M13.8442 21.0669C14.1682 21.0669 14.4832 20.8988 14.6569 20.598C14.9158 20.1496 14.7622 19.5764 14.3138 19.3175L12.127 18.0549C11.6786 17.7959 11.1052 17.9495 10.8465 18.398C10.5876 18.8464 10.7412 19.4196 11.1896 19.6785L13.3764 20.9411C13.5241 21.0264 13.6852 21.0669 13.8442 21.0669Z" fill="white"/>
<path d="M9.01953 27.7776C8.50178 27.7776 8.08203 28.1973 8.08203 28.7151C8.08203 29.2328 8.50178 29.6526 9.01953 29.6526H11.5448C12.0625 29.6526 12.4823 29.2328 12.4823 28.7151C12.4823 28.1973 12.0625 27.7776 11.5448 27.7776H9.01953Z" fill="white"/>
<path d="M43.5849 21.0669C43.7439 21.0669 43.9051 21.0262 44.0527 20.9411L46.2396 19.6785C46.688 19.4196 46.8416 18.8463 46.5827 18.398C46.3238 17.9495 45.7502 17.7963 45.3022 18.0549L43.1154 19.3175C42.667 19.5764 42.5134 20.1497 42.7722 20.598C42.9459 20.8987 43.261 21.0669 43.5849 21.0669Z" fill="white"/>
<path d="M39.0321 10.8452C38.5838 10.5862 38.0104 10.7399 37.7517 11.1883L36.489 13.3752C36.2302 13.8235 36.3838 14.3969 36.8322 14.6557C36.9798 14.7409 37.141 14.7814 37.3 14.7814C37.624 14.7814 37.939 14.6132 38.1128 14.3125L39.3754 12.1257C39.6341 11.6774 39.4805 11.1041 39.0321 10.8452Z" fill="white"/>
<path d="M32.3777 33.6667C32.4517 33.6845 32.5257 33.693 32.5986 33.693C33.0216 33.693 33.4053 33.4048 33.5091 32.9754L35.4605 24.8947C35.5819 24.3913 35.2726 23.8848 34.7692 23.7633C34.2662 23.642 33.7595 23.9512 33.638 24.4546L31.6866 32.5353C31.565 33.0387 31.8745 33.5452 32.3777 33.6667Z" fill="white"/>
<path d="M37.543 24.6746C37.543 25.1923 37.9627 25.6121 38.4805 25.6121H41.4898L38.5156 32.3782C38.3072 32.8522 38.5226 33.4053 38.9965 33.6135C39.1192 33.6675 39.2472 33.693 39.3732 33.693C39.7337 33.693 40.0775 33.4838 40.2318 33.1326L43.7841 25.0518C43.9114 24.762 43.8839 24.4273 43.7109 24.1622C43.5379 23.8971 43.2426 23.7372 42.9259 23.7372H38.4805C37.9627 23.7372 37.543 24.157 37.543 24.6746Z" fill="white"/>
<path d="M27.4879 24.132L23.4445 29.8277C23.2415 30.1136 23.2151 30.4889 23.376 30.8004C23.5369 31.1121 23.8583 31.3077 24.2089 31.3077H27.2982L27.2946 32.7529C27.2934 33.2707 27.712 33.6914 28.2297 33.6927H28.2321C28.7487 33.6927 29.1682 33.2746 29.1695 32.7576L29.1731 31.3077H29.2833C29.8011 31.3077 30.2208 30.8879 30.2208 30.3702C30.2208 29.8525 29.8011 29.4327 29.2833 29.4327H29.1778L29.1897 24.6767C29.1907 24.2684 28.9272 23.9062 28.5381 23.7816C28.1492 23.6574 27.7244 23.7989 27.4879 24.132ZM27.303 29.433H26.0241L27.3075 27.625L27.303 29.433Z" fill="white"/>
<path d="M21.9706 32.7554C21.9706 32.2377 21.5508 31.8179 21.0331 31.8179H19.1347C19.5498 31.2281 20.1242 30.4098 20.9172 29.2766C20.9208 29.2713 20.9245 29.2662 20.928 29.2609C21.5577 28.321 21.9704 27.6355 21.9704 26.7073C21.9704 25.0696 20.6381 23.7372 19.0003 23.7372C17.5843 23.7372 16.3587 24.7446 16.0861 26.1326C15.9864 26.6406 16.3172 27.1333 16.8253 27.2331C17.3327 27.3325 17.8261 27.002 17.9258 26.4938C18.0262 25.9828 18.4781 25.612 19.0005 25.612C19.6043 25.612 20.0957 26.1032 20.0957 26.7072C20.0957 27.069 19.907 27.4162 19.3758 28.2093C16.9195 31.7189 16.5811 32.1804 16.5689 32.1971C16.358 32.4816 16.3254 32.8605 16.4846 33.1769C16.6439 33.4933 16.9677 33.6928 17.3218 33.6928H21.0331C21.5509 33.6928 21.9706 33.2732 21.9706 32.7554Z" fill="white"/>
</svg>
