<svg width="68" height="68" viewBox="0 0 68 68" fill="none" xmlns="http://www.w3.org/2000/svg">
<path d="M22.3256 15.5378C22.2725 15.251 22.0069 15.0491 21.7095 15.1023C16.5784 15.984 13.2214 20.467 11.7872 24.3764C10.1619 28.7958 10.1512 33.7144 10.1406 38.0593C10.1406 38.3568 10.3743 38.5905 10.6718 38.5905C10.9692 38.5905 11.203 38.3568 11.203 38.0593C11.2136 33.5975 11.2242 28.9764 12.7858 24.7376C14.1138 21.1151 17.2158 16.9507 21.8901 16.154C22.1769 16.1008 22.3681 15.8246 22.3256 15.5378Z" fill="white"/>
<path d="M19.3292 21.9115C17.6719 23.4094 16.6946 25.8102 16.5777 28.6785C16.5033 30.4101 16.7264 32.1418 16.9283 33.8202C17.0133 34.4789 17.0982 35.1375 17.162 35.8068C17.3532 37.7615 17.4594 40.3005 16.4927 42.4995C16.3759 42.7651 16.5033 43.0838 16.7689 43.2007C16.8327 43.2325 16.907 43.2432 16.9814 43.2432C17.1832 43.2432 17.3851 43.1263 17.4701 42.9245C18.5324 40.4917 18.4262 37.7828 18.2243 35.7006C18.1606 35.0313 18.0756 34.362 17.9906 33.6928C17.7888 32.0674 17.5763 30.3783 17.64 28.7317C17.7038 27.2444 18.0968 24.4717 20.0409 22.7082C20.2534 22.5064 20.2746 22.177 20.0728 21.954C19.8709 21.7309 19.5522 21.7096 19.3292 21.9115Z" fill="white"/>
<path d="M34.1922 33.2466L33.9373 32.4286C33.8523 32.1524 33.5548 31.9931 33.268 32.0781C32.9918 32.1631 32.8324 32.4605 32.9174 32.7473L33.1724 33.5653C33.2467 33.7884 33.4486 33.9372 33.6823 33.9372C33.7354 33.9372 33.7885 33.9265 33.8417 33.9159C34.1179 33.8309 34.2772 33.5335 34.1922 33.2466Z" fill="white"/>
<path d="M35.4234 54.5465C32.7889 55.3751 31.3228 58.1797 32.1515 60.8143C32.5551 62.0891 33.4263 63.1302 34.6055 63.7464C35.3278 64.1288 36.1246 64.32 36.9107 64.32C37.41 64.32 37.9199 64.2457 38.4086 64.0863C39.6834 63.6826 40.7245 62.8115 41.3407 61.6323C41.9568 60.4531 42.0737 59.0933 41.6806 57.8185C40.8626 55.1945 38.058 53.7179 35.4234 54.5465ZM40.6714 58.1372C40.9901 59.1358 40.8945 60.2088 40.4058 61.1436C39.9171 62.0785 39.0991 62.7584 38.1005 63.0771C37.1019 63.3958 36.029 63.3002 35.1047 62.8115C34.1699 62.3228 33.49 61.5048 33.1713 60.5062C32.5233 58.4347 33.6812 56.225 35.7528 55.5664C36.1458 55.4389 36.5389 55.3858 36.9213 55.3858C38.5892 55.3751 40.1402 56.4587 40.6714 58.1372Z" fill="white"/>
<path d="M60.9525 30.9841C58.3073 30.198 55.524 31.7065 54.7378 34.3517C54.3554 35.6265 54.5041 36.9757 55.1415 38.1549C55.7789 39.3234 56.8306 40.1839 58.1161 40.5664C58.5835 40.7045 59.0722 40.7788 59.5502 40.7788C60.3682 40.7788 61.1862 40.577 61.9192 40.1733C63.0878 39.5359 63.9483 38.4842 64.3307 37.2094C65.1062 34.5536 63.5977 31.7702 60.9525 30.9841ZM63.3003 36.8907C63.0028 37.8999 62.3335 38.7285 61.4093 39.2278C60.4851 39.7271 59.4227 39.844 58.4135 39.5359C57.4043 39.2385 56.5757 38.5586 56.0764 37.6343C55.5771 36.7101 55.4602 35.6478 55.7577 34.6492C56.2676 32.9388 57.8399 31.834 59.529 31.834C59.9008 31.834 60.2726 31.8871 60.6444 31.9933C62.7266 32.6201 63.9164 34.8191 63.3003 36.8907Z" fill="white"/>
<path d="M66.9654 31.7489C65.8924 29.7623 64.1077 28.3176 61.9405 27.6802C57.4681 26.3522 52.7619 28.9125 51.434 33.3743C51.2215 34.086 51.1047 34.8191 51.0834 35.5521L44.3376 33.5443C44.1995 33.5018 44.0614 33.523 43.9339 33.5867C43.8277 33.6399 43.7533 33.7355 43.7108 33.8417L36.9544 32.0464L31.6427 16.6744C31.9826 16.515 32.3119 16.3557 32.6625 16.2176C40.1626 13.2111 46.781 11.5751 53.4843 11.0865C53.7711 11.0652 53.9836 10.8209 53.973 10.5447C53.9624 10.2578 53.7393 10.0348 53.4524 10.0241L35.4246 9.66294C33.3955 9.62044 31.3027 9.58857 29.2205 9.67356L29.0187 9.0999C28.3388 7.15582 27.319 5.38172 26.0017 3.84134C24.6844 2.30095 23.1015 1.03677 21.2849 0.0594182C21.0937 -0.036192 20.8706 -0.0149451 20.7006 0.112535C20.5306 0.250639 20.4669 0.463106 20.52 0.675573L23.3033 10.3216C20.2544 10.9271 17.7154 11.947 15.612 13.4661C12.0851 16.0263 10.0029 19.0965 8.74933 22.4428L0.66495 20.2332C0.463106 20.1801 0.240016 20.2544 0.112535 20.4138C-0.0149451 20.5731 -0.036192 20.8068 0.0594182 20.9981C1.04739 22.7934 2.34344 24.3657 3.9157 25.6723C4.96741 26.5541 6.13598 27.2871 7.37891 27.8608C6.90086 31.0478 6.83712 34.3623 6.78401 37.6342C6.75214 39.3234 6.72027 41.0656 6.63528 42.7335C6.28471 49.0862 4.74432 53.6437 1.80165 57.0962C1.62105 57.3087 1.63168 57.6274 1.83352 57.8186C2.03536 58.0099 2.35406 58.0205 2.55591 57.8293C6.85837 53.9624 10.0879 50.1804 12.3719 46.3242C11.0865 54.3342 7.7826 61.4624 2.71526 67.0822C2.54528 67.2734 2.53466 67.5496 2.68339 67.7515C2.78962 67.9321 2.9596 68.0064 3.11895 68.0064C3.19331 68.0064 3.26767 67.9958 3.33141 67.9639C14.5922 62.9922 22.156 52.1883 22.1454 41.0656C22.1454 39.3977 21.9648 37.6874 21.7948 36.0407C21.678 34.8934 21.5611 33.778 21.4974 32.6625L30.6122 35.6583L30.6972 35.9451C30.9309 36.6888 31.6745 37.135 32.4925 36.9225C32.5882 36.8906 32.705 36.9119 32.79 36.965C32.8856 37.0181 32.9493 37.1031 32.9812 37.2093L34.7553 43.5196C34.511 43.6258 34.3835 43.8914 34.4579 44.157L36.5613 50.871C35.8177 50.9028 35.0953 51.0303 34.3835 51.2534C32.227 51.9333 30.4635 53.3993 29.4224 55.4071C28.3813 57.4149 28.1795 59.699 28.8487 61.8449C29.9748 65.4568 33.3212 67.7727 36.9225 67.7727C37.7617 67.7727 38.6116 67.6452 39.4508 67.3903C43.8914 65.9986 46.3773 61.25 44.975 56.7988L40.4282 42.2979C40.3857 42.1598 40.2901 42.0536 40.1626 41.9898C40.1095 41.958 40.0458 41.9473 39.982 41.9367L38.8878 38.1973L42.181 39.1109C42.1917 39.1746 42.2023 39.2384 42.2342 39.2915C42.2979 39.419 42.4148 39.504 42.5529 39.5465L57.1175 43.8702C57.9142 44.1039 58.7322 44.2207 59.5396 44.2207C60.9313 44.2207 62.3017 43.8808 63.5553 43.2009C65.5418 42.1279 66.9866 40.3432 67.624 38.1867C68.272 36.0195 68.0383 33.7355 66.9654 31.7489ZM35.4033 10.7359L46.4516 10.959C41.9155 11.8301 37.2837 13.2324 32.2588 15.2508C31.9295 15.3783 31.6002 15.5377 31.2815 15.6864L29.5711 10.7465C31.5364 10.6828 33.5018 10.704 35.4033 10.7359ZM4.59559 24.8862C3.45889 23.9407 2.48154 22.8572 1.67417 21.6355L8.39876 23.4733C8.04819 24.5675 7.7826 25.683 7.57014 26.809C6.5078 26.2779 5.5092 25.6405 4.59559 24.8862ZM5.14801 65.8924C9.99226 59.7415 12.9668 52.1033 13.806 43.6258C13.8273 43.3709 13.6679 43.1371 13.4236 43.0628C13.1793 42.9884 12.9137 43.1053 12.7968 43.339C11.0865 46.8978 8.56873 50.3823 5.14801 53.9092C6.61403 50.8816 7.45328 47.2165 7.69762 42.8185C7.79323 41.14 7.8251 39.3765 7.84634 37.6874C7.99507 29.0931 8.1438 20.2013 16.2282 14.3478C18.2254 12.9031 20.6475 11.9363 23.5902 11.3733L25.8529 19.2027C23.9407 20.8918 22.496 22.8147 21.5611 24.9181C21.3486 25.3961 21.1787 25.8742 21.0299 26.3629C20.042 29.603 20.3925 32.9281 20.7325 36.1682C20.9025 37.783 21.0831 39.4615 21.0831 41.0762C21.0937 51.0091 14.7834 60.7188 5.14801 65.8924ZM28.3388 27.7864L22.241 26.1291C22.3366 25.8636 22.4216 25.598 22.5385 25.3324C23.3352 23.537 24.5994 21.8267 26.1929 20.3394L28.3388 27.7864ZM21.4442 31.5364C21.4124 30.0492 21.5399 28.5831 21.9117 27.1384L28.6788 28.9868L30.251 34.4366L21.4442 31.5364ZM33.3105 36.0407C32.9706 35.8495 32.5669 35.7964 32.2057 35.9026C31.9932 35.9558 31.7595 35.8389 31.6958 35.6477L26.9578 19.2133C26.9578 19.1921 26.9471 19.1815 26.9471 19.1602L24.4932 10.6403V10.6297L21.9117 1.67417C23.144 2.47092 24.2488 3.42702 25.1943 4.54248C26.4266 5.98725 27.3827 7.6445 28.0201 9.46109L28.3601 10.4278C28.3601 10.4384 28.3601 10.4491 28.3707 10.4491L36.88 35.0528L38.9622 42.181L35.7752 43.1796L34.0117 36.9119C33.8948 36.5507 33.6505 36.2426 33.3105 36.0407ZM43.9658 57.1069C45.1875 60.995 43.0203 65.1488 39.1321 66.3598C35.244 67.5815 31.0903 65.4037 29.8686 61.5262C29.2737 59.6459 29.4543 57.638 30.3679 55.8958C31.2815 54.1536 32.8219 52.8575 34.7022 52.2732C35.414 52.0501 36.1576 51.9333 36.9119 51.9333C37.0287 51.9333 37.1456 51.9333 37.2624 51.9439C37.443 51.9652 37.6024 51.8802 37.7086 51.7421C37.8148 51.604 37.8467 51.4234 37.7936 51.2534L35.6264 44.3588L39.5677 43.1265L43.9658 57.1069ZM37.8786 34.7447L37.3687 33.268L43.3921 34.8615L42.436 38.0698L38.5372 36.9968L37.8786 34.7447ZM66.6148 37.8786C66.0517 39.7695 64.7876 41.3312 63.056 42.266C61.3243 43.2009 59.3272 43.4134 57.4362 42.8503L43.3815 38.6753L44.5607 34.7234L51.4871 36.7844C51.6571 36.8269 51.8377 36.795 51.9652 36.6888C52.1033 36.5825 52.1776 36.4126 52.167 36.2426C52.1139 35.3715 52.2095 34.511 52.4538 33.6824C53.6118 29.773 57.7337 27.5421 61.643 28.7C63.534 29.263 65.0956 30.5272 66.0411 32.2588C66.9654 33.9904 67.1778 35.9876 66.6148 37.8786Z" fill="white"/>
</svg>
