<svg width="67" height="67" viewBox="0 0 67 67" fill="none" xmlns="http://www.w3.org/2000/svg">
<path d="M66.6667 45.1172C66.6667 35.3999 60.1191 26.9099 50.886 24.3515C50.3057 10.8256 39.122 0 25.4557 0C11.4192 0 0 11.4192 0 25.4557C0 30.0303 1.21765 34.4844 3.52987 38.3947L0.0935873 50.8174L12.5168 47.3816C16.1113 49.5072 20.166 50.7045 24.351 50.885C26.9089 60.1186 35.3994 66.6667 45.1172 66.6667C48.996 66.6667 52.768 65.6337 56.0822 63.6709L66.5726 66.5726L63.6709 56.0822C65.6337 52.768 66.6667 48.996 66.6667 45.1172ZM13.1332 43.158L5.69611 45.2154L7.7535 37.7782L7.28455 37.0448C5.07457 33.5871 3.90625 29.5797 3.90625 25.4557C3.90625 13.5732 13.5732 3.90625 25.4557 3.90625C37.3383 3.90625 47.0052 13.5732 47.0052 25.4557C47.0052 37.3383 37.3383 47.0052 25.4557 47.0052C21.3318 47.0052 17.3248 45.8369 13.8667 43.6269L13.1332 43.158ZM60.9706 60.9706L55.452 59.4437L54.715 59.9233C51.858 61.7793 48.5387 62.7604 45.1172 62.7604C37.4797 62.7604 30.7683 57.8222 28.3905 50.7411C40.0859 49.3927 49.3927 40.0859 50.7416 28.39C57.8222 30.7683 62.7604 37.4797 62.7604 45.1172C62.7604 48.5387 61.7793 51.858 59.9233 54.715L59.4437 55.452L60.9706 60.9706Z" fill="white"/>
<path d="M23.5039 35.2865H27.4102V39.1927H23.5039V35.2865Z" fill="white"/>
<path d="M29.3633 19.5313C29.3633 20.6406 28.9116 21.6644 28.0917 22.4147L23.5039 26.6139V31.3802H27.4102V28.3341L30.7289 25.2965C32.3433 23.819 33.2695 21.7178 33.2695 19.5313C33.2695 15.2232 29.7651 11.7188 25.457 11.7188C21.149 11.7188 17.6445 15.2232 17.6445 19.5313H21.5508C21.5508 17.3772 23.303 15.625 25.457 15.625C27.6111 15.625 29.3633 17.3772 29.3633 19.5313Z" fill="white"/>
</svg>
