<svg width="36" height="36" viewBox="0 0 36 36" fill="none" xmlns="http://www.w3.org/2000/svg">
<path d="M20.907 23.2489C20.7944 23.2491 20.6838 23.2197 20.5862 23.1637C20.4886 23.1077 20.4074 23.0271 20.3507 22.9299L17.7127 18.4161C17.5306 18.1048 17.4346 17.7506 17.4346 17.39V10.5816C17.4346 10.4109 17.5024 10.2472 17.6231 10.1265C17.7438 10.0058 17.9075 9.93799 18.0782 9.93799C18.2489 9.93799 18.4126 10.0058 18.5333 10.1265C18.654 10.2472 18.7218 10.4109 18.7218 10.5816V17.39C18.7218 17.5223 18.7571 17.6523 18.824 17.7665L21.462 22.2807C21.519 22.3784 21.5493 22.4895 21.5498 22.6027C21.5502 22.7159 21.5208 22.8272 21.4645 22.9254C21.4083 23.0236 21.3271 23.1052 21.2292 23.162C21.1313 23.2188 21.0201 23.2488 20.907 23.2489Z" fill="#222222"/>
<path d="M28.8564 23.9161C29.9333 22.0453 30.5 19.9247 30.5 17.7661C30.5 15.6076 29.9333 13.4869 28.8564 11.6162C28.8507 11.5955 28.8439 11.5751 28.836 11.5552C28.8195 11.5338 28.8016 11.5136 28.7825 11.4946C27.7055 9.66431 26.1799 8.13869 24.3496 7.06173C24.3353 7.0419 24.3171 7.02513 24.2962 7.01241C24.2753 6.99969 24.252 6.99127 24.2278 6.98765C22.3572 5.91095 20.2366 5.34425 18.0783 5.34424C15.9199 5.34422 13.7993 5.91089 11.9287 6.98756C11.9044 6.99119 11.8811 6.99962 11.8602 7.01236C11.8392 7.02509 11.821 7.04188 11.8067 7.06173C9.97612 8.13883 8.45033 9.66472 7.37335 11.4953C7.35447 11.5141 7.33686 11.5341 7.32063 11.5552C7.31286 11.5748 7.30613 11.5948 7.30047 11.6151C6.22324 13.4861 5.65625 15.6072 5.65625 17.7661C5.65625 19.9251 6.22324 22.0462 7.30047 23.9172C7.30613 23.9375 7.31286 23.9575 7.32063 23.9771C7.34275 24.0123 7.36826 24.0453 7.3968 24.0755C8.47241 25.8891 9.98945 27.401 11.8067 28.4705C11.8256 28.4897 11.8458 28.5075 11.8672 28.524C11.8945 28.5376 11.9228 28.5493 11.9519 28.5588C13.8171 29.6264 15.929 30.188 18.0781 30.188C20.2273 30.188 22.3392 29.6264 24.2044 28.5588C24.2335 28.5493 24.2618 28.5376 24.2891 28.524C24.3104 28.5075 24.3307 28.4897 24.3496 28.4705C26.1662 27.4014 27.6828 25.8902 28.7583 24.0774C28.7875 24.0466 28.8135 24.013 28.836 23.9771C28.8439 23.9571 28.8507 23.9368 28.8564 23.9161ZM24.1893 27.0635L23.4824 25.8388C23.4401 25.7656 23.3838 25.7014 23.3168 25.65C23.2497 25.5985 23.1732 25.5607 23.0915 25.5389C23.0099 25.517 22.9247 25.5114 22.8409 25.5224C22.7571 25.5334 22.6762 25.5609 22.603 25.6031C22.5298 25.6454 22.4656 25.7017 22.4142 25.7687C22.3627 25.8358 22.3249 25.9123 22.3031 25.994C22.2812 26.0756 22.2756 26.1608 22.2866 26.2446C22.2976 26.3284 22.3251 26.4092 22.3673 26.4825L23.0724 27.7039C21.7176 28.3868 20.2366 28.7832 18.7218 28.8682V27.4595C18.7218 27.2888 18.654 27.1251 18.5333 27.0044C18.4126 26.8837 18.2488 26.8159 18.0781 26.8159C17.9074 26.8159 17.7437 26.8837 17.623 27.0044C17.5023 27.1251 17.4345 27.2888 17.4345 27.4595V28.8682C15.9197 28.7832 14.4387 28.3868 13.0839 27.7039L13.789 26.4825C13.8313 26.4092 13.8587 26.3284 13.8698 26.2446C13.8809 26.1607 13.8753 26.0755 13.8534 25.9939C13.8316 25.9122 13.7938 25.8356 13.7423 25.7685C13.6909 25.7014 13.6267 25.6451 13.5534 25.6028C13.4802 25.5606 13.3993 25.5331 13.3155 25.5221C13.2317 25.5111 13.1465 25.5167 13.0648 25.5386C12.9831 25.5605 12.9066 25.5983 12.8395 25.6498C12.7724 25.7014 12.7162 25.7656 12.6739 25.8388L11.967 27.0635C10.7004 26.2279 9.61648 25.144 8.78089 23.8774L10.0054 23.1703C10.1532 23.085 10.261 22.9444 10.3052 22.7795C10.3493 22.6146 10.3262 22.439 10.2409 22.2912C10.1555 22.1434 10.015 22.0355 9.85018 21.9913C9.68534 21.947 9.50968 21.9701 9.36182 22.0553L8.14045 22.7605C7.45752 21.4057 7.06116 19.9246 6.97612 18.4098H8.38508C8.55578 18.4098 8.71949 18.342 8.84019 18.2213C8.96089 18.1005 9.0287 17.9368 9.0287 17.7661C9.0287 17.5954 8.96089 17.4317 8.84019 17.311C8.71949 17.1903 8.55578 17.1225 8.38508 17.1225H6.97611C7.06115 15.6077 7.4575 14.1266 8.14043 12.7718L9.36182 13.477C9.50968 13.5622 9.68534 13.5853 9.85018 13.541C10.015 13.4968 10.1555 13.3889 10.2409 13.2411C10.3262 13.0933 10.3493 12.9176 10.3052 12.7528C10.261 12.5879 10.1532 12.4473 10.0054 12.3619L8.78089 11.6549C9.61648 10.3883 10.7004 9.30436 11.967 8.46878L12.6739 9.69341C12.7162 9.76667 12.7724 9.83089 12.8395 9.8824C12.9066 9.93392 12.9831 9.97171 13.0648 9.99362C13.1465 10.0155 13.2317 10.0211 13.3155 10.0101C13.3993 9.99911 13.4802 9.97168 13.5534 9.9294C13.6267 9.88713 13.6909 9.83084 13.7423 9.76374C13.7938 9.69665 13.8316 9.62008 13.8534 9.53839C13.8753 9.45671 13.8809 9.37151 13.8698 9.28767C13.8587 9.20384 13.8313 9.123 13.789 9.04979L13.0839 7.82837C14.4387 7.14544 15.9197 6.74909 17.4345 6.66405V8.07307C17.4345 8.24377 17.5023 8.40748 17.623 8.52819C17.7437 8.64889 17.9074 8.7167 18.0781 8.7167C18.2488 8.7167 18.4126 8.64889 18.5333 8.52819C18.654 8.40748 18.7218 8.24377 18.7218 8.07307V6.6641C20.2366 6.74914 21.7176 7.14549 23.0724 7.82842L22.3673 9.04984C22.282 9.1977 22.2588 9.37341 22.3031 9.53832C22.3473 9.70323 22.4552 9.84382 22.603 9.92917C22.7509 10.0145 22.9266 10.0376 23.0915 9.99343C23.2564 9.94923 23.397 9.84133 23.4824 9.69347L24.1893 8.46883C25.4559 9.30444 26.5399 10.3884 27.3755 11.655L26.1508 12.3619C26.0031 12.4473 25.8953 12.5879 25.8511 12.7528C25.807 12.9177 25.8301 13.0933 25.9154 13.2411C26.0007 13.3889 26.1413 13.4968 26.3061 13.541C26.4709 13.5853 26.6466 13.5622 26.7945 13.477L28.0159 12.7719C28.6988 14.1267 29.0952 15.6077 29.1802 17.1225H27.7716C27.6009 17.1225 27.4371 17.1903 27.3164 17.3111C27.1957 17.4318 27.1279 17.5955 27.1279 17.7662C27.1279 17.9369 27.1957 18.1006 27.3164 18.2213C27.4371 18.342 27.6009 18.4098 27.7716 18.4098H29.1802C29.0952 19.9246 28.6988 21.4056 28.0159 22.7604L26.7945 22.0553C26.6466 21.9701 26.4709 21.947 26.3061 21.9913C26.1413 22.0355 26.0007 22.1434 25.9154 22.2912C25.8301 22.439 25.807 22.6146 25.8511 22.7795C25.8953 22.9444 26.0031 23.085 26.1508 23.1703L27.3755 23.8773C26.5399 25.1439 25.4559 26.2279 24.1893 27.0635Z" fill="#222222"/>
<path d="M34.6338 28.4085L32.2073 29.0361C34.6958 25.8327 36.0291 21.8826 35.9909 17.8264C35.9527 13.7702 34.5453 9.8459 31.9968 6.68999C29.4484 3.53408 25.9085 1.33171 21.9514 0.440115C17.9942 -0.451483 13.8519 0.0199902 10.1963 1.77806C6.5407 3.53613 3.58629 6.47767 1.81227 10.1255C0.0382575 13.7734 -0.451299 17.9137 0.423012 21.8747C1.29732 25.8357 3.48421 29.3852 6.62896 31.9473C9.77371 34.5095 13.6918 35.9341 17.7478 35.99H17.7566C17.9273 35.9911 18.0915 35.9243 18.2129 35.8044C18.3344 35.6844 18.4033 35.5211 18.4043 35.3504C18.4054 35.1797 18.3387 35.0156 18.2187 34.8941C18.0988 34.7727 17.9355 34.7038 17.7648 34.7027C13.9907 34.654 10.3439 33.3314 7.41606 30.9494C4.48823 28.5674 2.45127 25.2659 1.63573 21.5807C0.820198 17.8955 1.27395 14.0428 2.92336 10.6479C4.57276 7.25299 7.32101 4.51509 10.7221 2.87852C14.1232 1.24194 17.9776 0.80274 21.6597 1.63218C25.3418 2.46163 28.6356 4.51104 31.0065 7.44784C33.3774 10.3846 34.6863 14.0365 34.7207 17.8107C34.7552 21.5849 33.5132 25.26 31.1964 28.2396L31.3933 25.7108C31.4066 25.5407 31.3517 25.3722 31.2407 25.2425C31.1298 25.1128 30.9719 25.0325 30.8017 25.0193C30.6315 25.006 30.4631 25.0609 30.3334 25.1719C30.2037 25.2828 30.1234 25.4407 30.1102 25.6109L29.7993 29.6C29.7873 29.7612 29.8139 29.9229 29.8769 30.0718C29.9398 30.2207 30.0374 30.3524 30.1614 30.4561C30.2854 30.5597 30.4324 30.6323 30.5901 30.6679C30.7478 30.7034 30.9116 30.7008 31.0681 30.6604L34.9558 29.655C35.0377 29.6338 35.1146 29.5967 35.1821 29.5459C35.2496 29.495 35.3065 29.4314 35.3494 29.3585C35.3923 29.2857 35.4204 29.2052 35.4322 29.1214C35.444 29.0377 35.4392 28.9525 35.4181 28.8707C35.3969 28.7888 35.3598 28.712 35.309 28.6444C35.2581 28.5769 35.1945 28.5201 35.1216 28.4772C35.0488 28.4342 34.9683 28.4061 34.8845 28.3943C34.8008 28.3825 34.7156 28.3873 34.6338 28.4085Z" fill="#222222"/>
</svg>
