<svg width="32" height="36" viewBox="0 0 32 36" fill="none" xmlns="http://www.w3.org/2000/svg">
<path d="M21.825 23.7798C25.6548 17.7701 25.1734 18.5198 25.2838 18.3631C26.6781 16.3964 27.4151 14.0817 27.4151 11.669C27.4151 5.27073 22.223 0 15.8164 0C9.43066 0 4.21771 5.26033 4.21771 11.669C4.21771 14.0801 4.97015 16.4555 6.41021 18.4487L9.80772 23.7799C6.17522 24.3381 0 26.0016 0 29.6645C0 30.9998 0.871519 32.9027 5.02343 34.3855C7.92254 35.4209 11.7555 35.9911 15.8164 35.9911C23.41 35.9911 31.6328 33.8491 31.6328 29.6645C31.6328 26.001 25.4648 24.3392 21.825 23.7798ZM8.17174 17.2887C8.16014 17.2706 8.14805 17.2529 8.1354 17.2355C6.93708 15.5869 6.32656 13.6331 6.32656 11.669C6.32656 6.39559 10.5728 2.10885 15.8164 2.10885C21.0491 2.10885 25.3062 6.39749 25.3062 11.669C25.3062 13.6363 24.7073 15.5238 23.5738 17.1289C23.4722 17.2629 24.0021 16.4396 15.8164 29.2842L8.17174 17.2887ZM15.8164 33.8823C7.522 33.8823 2.10885 31.4442 2.10885 29.6645C2.10885 28.4684 4.89029 26.5016 11.0538 25.735L14.9272 31.8129C15.1208 32.1167 15.4561 32.3006 15.8163 32.3006C16.1766 32.3006 16.512 32.1167 16.7055 31.8129L20.5788 25.735C26.7425 26.5016 29.524 28.4684 29.524 29.6645C29.524 31.4291 24.1595 33.8823 15.8164 33.8823Z" fill="#222222"/>
<path d="M15.8161 6.39697C12.909 6.39697 10.5439 8.76205 10.5439 11.6691C10.5439 14.5762 12.909 16.9412 15.8161 16.9412C18.7231 16.9412 21.0882 14.5762 21.0882 11.6691C21.0882 8.76205 18.7231 6.39697 15.8161 6.39697ZM15.8161 14.8324C14.0718 14.8324 12.6528 13.4133 12.6528 11.6691C12.6528 9.92487 14.0718 8.50583 15.8161 8.50583C17.5603 8.50583 18.9794 9.92487 18.9794 11.6691C18.9794 13.4133 17.5603 14.8324 15.8161 14.8324Z" fill="#222222"/>
</svg>
