<svg width="48" height="34" viewBox="0 0 48 34" fill="none" xmlns="http://www.w3.org/2000/svg">
<path d="M43.7812 0H4.21875C1.89731 0 0 1.90296 0 4.25V29.75C0 32.0979 1.89853 34 4.21875 34H43.7812C46.1027 34 48 32.097 48 29.75V4.25C48 1.90239 46.1017 0 43.7812 0ZM43.1334 2.83333C41.7695 4.21194 25.748 20.4047 25.0897 21.07C24.54 21.6255 23.4603 21.6259 22.9103 21.07L4.86656 2.83333H43.1334ZM2.8125 29.2291V4.77086L14.9123 17L2.8125 29.2291ZM4.86656 31.1667L16.8979 19.0068L20.9183 23.0702C22.5659 24.7354 25.4348 24.7347 27.0818 23.0702L31.1022 19.0068L43.1334 31.1667H4.86656ZM45.1875 29.2291L33.0877 17L45.1875 4.77086V29.2291Z" fill="white"/>
</svg>
