<svg width="48" height="48" viewBox="0 0 48 48" fill="none" xmlns="http://www.w3.org/2000/svg">
<path d="M26.4 24C25.0745 24 24 25.0745 24 26.4C24 27.7255 25.0745 28.8 26.4 28.8C27.7255 28.8 28.8 27.7255 28.8 26.4C28.8 25.0745 27.7255 24 26.4 24ZM26.4 27.2C25.9582 27.2 25.6 26.8418 25.6 26.4C25.6 25.9582 25.9582 25.6 26.4 25.6C26.8418 25.6 27.2 25.9582 27.2 26.4C27.2 26.8418 26.8418 27.2 26.4 27.2Z" fill="white"/>
<path d="M32.8004 24C31.4749 24 30.4004 25.0745 30.4004 26.4C30.4004 27.7255 31.4749 28.8 32.8004 28.8C34.1259 28.8 35.2004 27.7255 35.2004 26.4C35.2004 25.0745 34.1259 24 32.8004 24ZM32.8004 27.2C32.3586 27.2 32.0004 26.8418 32.0004 26.4C32.0004 25.9582 32.3586 25.6 32.8004 25.6C33.2422 25.6 33.6004 25.9582 33.6004 26.4C33.6004 26.8418 33.2422 27.2 32.8004 27.2Z" fill="white"/>
<path d="M39.2008 24C37.8753 24 36.8008 25.0745 36.8008 26.4C36.8008 27.7255 37.8753 28.8 39.2008 28.8C40.5263 28.8 41.6008 27.7255 41.6008 26.4C41.6008 25.0745 40.5263 24 39.2008 24ZM39.2008 27.2C38.759 27.2 38.4008 26.8418 38.4008 26.4C38.4008 25.9582 38.759 25.6 39.2008 25.6C39.6426 25.6 40.0008 25.9582 40.0008 26.4C40.0008 26.8418 39.6426 27.2 39.2008 27.2Z" fill="white"/>
<path d="M26.4 30.4C25.0745 30.4 24 31.4745 24 32.8C24 34.1255 25.0745 35.2 26.4 35.2C27.7255 35.2 28.8 34.1255 28.8 32.8C28.8 31.4745 27.7255 30.4 26.4 30.4ZM26.4 33.6C25.9582 33.6 25.6 33.2418 25.6 32.8C25.6 32.3582 25.9582 32 26.4 32C26.8418 32 27.2 32.3582 27.2 32.8C27.2 33.2418 26.8418 33.6 26.4 33.6Z" fill="white"/>
<path d="M32.8004 30.4C31.4749 30.4 30.4004 31.4745 30.4004 32.8C30.4004 34.1255 31.4749 35.2 32.8004 35.2C34.1259 35.2 35.2004 34.1255 35.2004 32.8C35.2004 31.4745 34.1259 30.4 32.8004 30.4ZM32.8004 33.6C32.3586 33.6 32.0004 33.2418 32.0004 32.8C32.0004 32.3582 32.3586 32 32.8004 32C33.2422 32 33.6004 32.3582 33.6004 32.8C33.6004 33.2418 33.2422 33.6 32.8004 33.6Z" fill="white"/>
<path d="M39.2008 30.4C37.8753 30.4 36.8008 31.4745 36.8008 32.8C36.8008 34.1255 37.8753 35.2 39.2008 35.2C40.5263 35.2 41.6008 34.1255 41.6008 32.8C41.6008 31.4745 40.5263 30.4 39.2008 30.4ZM39.2008 33.6C38.759 33.6 38.4008 33.2418 38.4008 32.8C38.4008 32.3582 38.759 32 39.2008 32C39.6426 32 40.0008 32.3582 40.0008 32.8C40.0008 33.2418 39.6426 33.6 39.2008 33.6Z" fill="white"/>
<path d="M26.4 36.8C25.0745 36.8 24 37.8745 24 39.2C24 40.5255 25.0745 41.6 26.4 41.6C27.7255 41.6 28.8 40.5255 28.8 39.2C28.8 37.8745 27.7255 36.8 26.4 36.8ZM26.4 40C25.9582 40 25.6 39.6418 25.6 39.2C25.6 38.7582 25.9582 38.4 26.4 38.4C26.8418 38.4 27.2 38.7582 27.2 39.2C27.2 39.6418 26.8418 40 26.4 40Z" fill="white"/>
<path d="M32.8004 36.8C31.4749 36.8 30.4004 37.8745 30.4004 39.2C30.4004 40.5255 31.4749 41.6 32.8004 41.6C34.1259 41.6 35.2004 40.5255 35.2004 39.2C35.2004 37.8745 34.1259 36.8 32.8004 36.8ZM32.8004 40C32.3586 40 32.0004 39.6418 32.0004 39.2C32.0004 38.7582 32.3586 38.4 32.8004 38.4C33.2422 38.4 33.6004 38.7582 33.6004 39.2C33.6004 39.6418 33.2422 40 32.8004 40Z" fill="white"/>
<path d="M39.2008 36.8C37.8753 36.8 36.8008 37.8745 36.8008 39.2C36.8008 40.5255 37.8753 41.6 39.2008 41.6C40.5263 41.6 41.6008 40.5255 41.6008 39.2C41.6008 37.8745 40.5263 36.8 39.2008 36.8ZM39.2008 40C38.759 40 38.4008 39.6418 38.4008 39.2C38.4008 38.7582 38.759 38.4 39.2008 38.4C39.6426 38.4 40.0008 38.7582 40.0008 39.2C40.0008 39.6418 39.6426 40 39.2008 40Z" fill="white"/>
<path d="M45.6 12.8H42.4V3.6872L38.72 0H23.2V12.8H17.36C16.6508 10.4306 14.4732 8.8055 12 8.8H10.4C7.9268 8.8055 5.7492 10.4306 5.04 12.8H2.4C1.0745 12.8 0 13.8745 0 15.2V42.4C0 43.7255 1.0745 44.8 2.4 44.8H5.348C6.2738 46.7518 8.2397 47.997 10.4 48H12C14.1603 47.997 16.1262 46.7518 17.052 44.8H45.6C46.9255 44.8 48 43.7255 48 42.4V15.2C48 13.8745 46.9255 12.8 45.6 12.8ZM2.4 43.2C1.9582 43.2 1.6 42.8418 1.6 42.4V15.2C1.6 14.7582 1.9582 14.4 2.4 14.4H4.8V42.4C4.8022 42.6678 4.8236 42.9352 4.864 43.2H2.4ZM16 42.4C15.9974 44.608 14.208 46.3974 12 46.4H10.4C8.192 46.3974 6.4026 44.608 6.4 42.4V14.4C6.4026 12.192 8.192 10.4026 10.4 10.4H12C14.208 10.4026 15.9974 12.192 16 14.4V42.4ZM24.8 1.6H38.0584L40.8 4.3488V12.8H24.8V1.6ZM46.4 42.4C46.4 42.8418 46.0418 43.2 45.6 43.2H17.536C17.5764 42.9352 17.5978 42.6678 17.6 42.4V14.4H45.6C46.0418 14.4 46.4 14.7582 46.4 15.2V42.4Z" fill="white"/>
<path d="M23.1992 16V22.4H42.3992V16H23.1992ZM40.7992 20.8H24.7992V17.6H40.7992V20.8Z" fill="white"/>
<path d="M37.6004 3.20001H26.4004V4.80001H37.6004V3.20001Z" fill="white"/>
<path d="M37.6004 6.40002H26.4004V8.00002H37.6004V6.40002Z" fill="white"/>
<path d="M37.6004 9.59998H26.4004V11.2H37.6004V9.59998Z" fill="white"/>
</svg>
