<svg width="40" height="46" viewBox="0 0 40 46" fill="none" xmlns="http://www.w3.org/2000/svg">
<path d="M27.5979 30.0698C32.4408 22.4704 31.832 23.4185 31.9716 23.2204C33.7348 20.7334 34.6667 17.8064 34.6667 14.7556C34.6667 6.66489 28.1012 0 20 0C11.9252 0 5.33333 6.65173 5.33333 14.7556C5.33333 17.8044 6.2848 20.8081 8.10578 23.3285L12.402 30.0699C7.80862 30.7757 0 32.8793 0 37.5111C0 39.1996 1.10204 41.6058 6.35218 43.4808C10.0181 44.79 14.865 45.5111 20 45.5111C29.6022 45.5111 40 42.8025 40 37.5111C40 32.8785 32.2005 30.7772 27.5979 30.0698ZM10.3332 21.8618C10.3186 21.8388 10.3033 21.8164 10.2873 21.7944C8.772 19.7098 8 17.2392 8 14.7556C8 8.08729 13.3694 2.66667 20 2.66667C26.6168 2.66667 32 8.08969 32 14.7556C32 17.2432 31.2426 19.63 29.8092 21.6596C29.6808 21.8291 30.3509 20.788 20 37.0301L10.3332 21.8618ZM20 42.8444C9.51164 42.8444 2.66667 39.7615 2.66667 37.5111C2.66667 35.9986 6.18382 33.5116 13.9776 32.5421L18.8756 40.2277C19.1204 40.6119 19.5444 40.8444 19.9999 40.8444C20.4555 40.8444 20.8796 40.6118 21.1243 40.2277L26.0221 32.5421C33.8161 33.5116 37.3333 35.9986 37.3333 37.5111C37.3333 39.7424 30.55 42.8444 20 42.8444Z" fill="white"/>
<path d="M20.0007 8.08887C16.3247 8.08887 13.334 11.0795 13.334 14.7555C13.334 18.4315 16.3247 21.4222 20.0007 21.4222C23.6767 21.4222 26.6673 18.4315 26.6673 14.7555C26.6673 11.0795 23.6767 8.08887 20.0007 8.08887ZM20.0007 18.7555C17.7951 18.7555 16.0007 16.9611 16.0007 14.7555C16.0007 12.5499 17.7951 10.7555 20.0007 10.7555C22.2063 10.7555 24.0007 12.5499 24.0007 14.7555C24.0007 16.9611 22.2063 18.7555 20.0007 18.7555Z" fill="white"/>
</svg>
