<svg width="42" height="42" viewBox="0 0 42 42" fill="none" xmlns="http://www.w3.org/2000/svg">
<path d="M33.0572 25.9347C32.2001 25.0423 31.1662 24.5651 30.0706 24.5651C28.9837 24.5651 27.941 25.0334 27.0486 25.9259L24.2563 28.7093C24.0266 28.5856 23.7969 28.4707 23.576 28.3558C23.2579 28.1968 22.9574 28.0466 22.7012 27.8875C20.0857 26.2263 17.7087 24.0615 15.429 21.2604C14.3245 19.8643 13.5822 18.6891 13.0432 17.4962C13.7678 16.8335 14.4393 16.1442 15.0932 15.4815C15.3406 15.2341 15.588 14.9779 15.8355 14.7304C17.6911 12.8748 17.6911 10.4714 15.8355 8.6158L13.4232 6.20352C13.1493 5.9296 12.8665 5.64684 12.6014 5.36408C12.0712 4.81624 11.5146 4.25072 10.9402 3.72055C10.0831 2.87228 9.05811 2.42163 7.98009 2.42163C6.90208 2.42163 5.85941 2.87228 4.97579 3.72055C4.96695 3.72939 4.96695 3.72939 4.95812 3.73822L1.95381 6.76904C0.82278 7.90007 0.177739 9.27851 0.0363596 10.8779C-0.175709 13.458 0.584203 15.8615 1.16739 17.4343C2.59885 21.2957 4.73721 24.8744 7.92707 28.7093C11.7973 33.3306 16.454 36.98 21.7734 39.5513C23.8057 40.5144 26.5184 41.6543 29.5492 41.8487C29.7348 41.8575 29.9292 41.8664 30.1059 41.8664C32.1471 41.8664 33.8613 41.133 35.2044 39.675C35.2132 39.6573 35.2309 39.6485 35.2397 39.6308C35.6992 39.0741 36.2294 38.5705 36.7861 38.0315C37.166 37.6692 37.5548 37.2892 37.9348 36.8916C38.8096 35.9815 39.269 34.9211 39.269 33.8343C39.269 32.7386 38.8007 31.6871 37.9083 30.8035L33.0572 25.9347ZM36.2205 35.2392C36.2117 35.2392 36.2117 35.2481 36.2205 35.2392C35.8759 35.6104 35.5225 35.9461 35.1425 36.3172C34.5682 36.8651 33.985 37.4394 33.4371 38.0845C32.5447 39.0388 31.4932 39.4894 30.1147 39.4894C29.9822 39.4894 29.8408 39.4894 29.7083 39.4806C27.0839 39.3127 24.6451 38.2877 22.8161 37.4129C17.8148 34.9918 13.4232 31.5545 9.77384 27.1983C6.7607 23.5666 4.74605 20.2089 3.41178 16.6037C2.59002 14.4035 2.28959 12.6893 2.42213 11.0723C2.51049 10.0384 2.90812 9.18131 3.64152 8.44791L6.65466 5.43477C7.08764 5.02831 7.54712 4.8074 7.99777 4.8074C8.55444 4.8074 9.00509 5.14318 9.28785 5.42593C9.29668 5.43477 9.30552 5.44361 9.31436 5.45244C9.85336 5.95611 10.3659 6.47744 10.9049 7.03412C11.1788 7.31688 11.4615 7.59964 11.7443 7.89123L14.1566 10.3035C15.0932 11.2401 15.0932 12.1061 14.1566 13.0427C13.9003 13.299 13.6529 13.5552 13.3967 13.8026C12.6544 14.5626 11.9475 15.2694 11.1788 15.9587C11.1611 15.9763 11.1434 15.9852 11.1346 16.0029C10.3747 16.7628 10.5161 17.505 10.6751 18.0087C10.684 18.0352 10.6928 18.0617 10.7016 18.0882C11.329 19.608 12.2126 21.0395 13.5557 22.7449L13.5646 22.7537C16.0034 25.758 18.5747 28.0996 21.4111 29.8933C21.7734 30.1231 22.1445 30.3086 22.4979 30.4854C22.816 30.6444 23.1165 30.7946 23.3727 30.9537C23.4081 30.9714 23.4434 30.9979 23.4788 31.0155C23.7792 31.1657 24.062 31.2364 24.3535 31.2364C25.087 31.2364 25.5464 30.777 25.6966 30.6267L28.7186 27.6048C29.0191 27.3043 29.4962 26.9421 30.0529 26.9421C30.6007 26.9421 31.0514 27.2867 31.3253 27.5871C31.3341 27.5959 31.3341 27.5959 31.343 27.6048L36.2117 32.4735C37.1218 33.3748 37.1218 34.3026 36.2205 35.2392Z" fill="white"/>
<path d="M22.5952 9.95886C24.9103 10.3477 27.0133 11.4433 28.6921 13.1222C30.371 14.8011 31.4579 16.9041 31.8555 19.2192C31.9527 19.8024 32.4564 20.2088 33.0307 20.2088C33.1014 20.2088 33.1633 20.2 33.2339 20.1912C33.8878 20.0851 34.3208 19.4666 34.2148 18.8127C33.7376 16.0117 32.4122 13.458 30.3887 11.4345C28.3652 9.41102 25.8116 8.08559 23.0105 7.60844C22.3566 7.5024 21.7469 7.93538 21.632 8.58042C21.5172 9.22546 21.9413 9.85283 22.5952 9.95886Z" fill="white"/>
<path d="M41.7867 18.4681C41.0003 13.8557 38.8266 9.65847 35.4865 6.31839C32.1464 2.97831 27.9492 0.804607 23.3367 0.0181862C22.6917 -0.0966842 22.082 0.345125 21.9671 0.990167C21.8611 1.64404 22.2941 2.25374 22.948 2.36861C27.0656 3.06667 30.821 5.01947 33.8076 7.99726C36.7943 10.9839 38.7382 14.7393 39.4363 18.8569C39.5335 19.4401 40.0371 19.8466 40.6115 19.8466C40.6822 19.8466 40.744 19.8378 40.8147 19.8289C41.4598 19.7317 41.9016 19.1132 41.7867 18.4681Z" fill="white"/>
</svg>
