<svg width="40" height="36" viewBox="0 0 40 36" fill="none" xmlns="http://www.w3.org/2000/svg">
<path d="M13.4324 8.25562H36.6734L23.9778 18.2252C23.7087 18.4363 23.3887 18.5394 23.0983 18.5676C22.806 18.5389 22.4849 18.4358 22.2129 18.2252L13.1401 11.0981C13.044 11.0208 12.9355 10.9618 12.8161 10.9251C13.2431 10.3227 13.4869 9.59385 13.474 8.80855C13.4715 8.6287 13.4557 8.4434 13.4324 8.25562ZM7.52208 1.84389C7.55131 1.84884 7.59937 1.86717 7.70391 1.91573C7.91052 2.01383 8.23901 2.26651 8.56056 2.61878C9.20813 3.32432 9.85519 4.39302 10.1911 5.09855C10.2015 5.11936 10.2124 5.14215 10.2223 5.16544C11.1756 6.80095 11.5868 8.05198 11.5992 8.83679C11.6126 9.62507 11.401 9.96445 10.7327 10.3484L9.00846 11.3423C7.88525 11.9889 7.35461 13.1478 7.22282 14.2289C7.09053 15.3105 7.28525 16.3613 7.76634 17.1922L12.0223 24.5275C12.5044 25.3579 13.3274 26.0525 14.3336 26.4791C15.3409 26.9067 16.6147 27.0276 17.7379 26.3825L19.4621 25.3906C20.13 25.0076 20.5338 24.9996 21.2121 25.403C21.8924 25.8072 22.7758 26.7838 23.7251 28.4203C23.7384 28.4446 23.7513 28.4649 23.7667 28.4882C24.2116 29.1298 24.8176 30.2183 25.1099 31.13C25.255 31.5828 25.312 31.9921 25.2937 32.2185C25.2734 32.4459 25.2684 32.4226 25.2085 32.4583L23.8965 33.2104C20.6007 34.6398 17.5799 34.3172 14.8801 32.9171C12.1754 31.511 9.82448 28.9717 8.1855 25.9906C8.18005 25.9846 8.17757 25.9772 8.17311 25.9732L4.58302 19.7859C4.57707 19.78 4.57459 19.7745 4.56964 19.7666C2.79342 16.8632 1.75841 13.5669 1.88822 10.5342C2.01803 7.50599 3.24676 4.74529 6.14123 2.62126L7.45371 1.87163C7.48393 1.85429 7.49384 1.84091 7.52208 1.84389ZM7.53546 0.00028317C7.18814 -0.00516688 6.83389 0.0676655 6.51531 0.252472L5.12753 1.05066C5.09631 1.06849 5.06758 1.08682 5.03934 1.10466C1.70044 3.54826 0.16303 6.95008 0.0129057 10.4564C-0.137218 13.9613 1.03305 17.5787 2.96634 20.7412L6.54454 26.9072L6.53612 26.8888C8.32224 30.1346 10.8818 32.9503 14.0096 34.5724C17.1389 36.197 20.8668 36.5736 24.664 34.9177C24.6952 34.9044 24.7269 34.8895 24.7551 34.8722L26.1449 34.074C26.7875 33.7083 27.1105 32.9968 27.1631 32.3755C27.2171 31.7562 27.0907 31.1532 26.899 30.5592C26.5234 29.3845 25.8684 28.2434 25.3274 27.4606C24.3053 25.7022 23.3183 24.4819 22.1777 23.7996C21.0283 23.1144 19.6484 23.1243 18.5228 23.7714L16.7986 24.7653C16.2892 25.0586 15.6937 25.0244 15.0669 24.7593C14.4431 24.4943 13.8654 23.9641 13.6509 23.5925L9.39491 16.2578C9.17988 15.8842 9.004 15.1222 9.08723 14.4503C9.1675 13.7805 9.4395 13.2558 9.94933 12.962L11.6245 11.9988C11.6681 12.2233 11.7949 12.4269 11.9787 12.5636L21.0521 19.6923C21.6422 20.156 22.3413 20.4142 23.0453 20.4548C23.081 20.4568 23.1176 20.4568 23.1538 20.4548C23.8583 20.4142 24.554 20.1555 25.1446 19.6923L37.641 9.87527V26.0936C37.641 26.3404 37.3596 26.6654 36.8077 26.6654H28.1565C27.6357 26.6624 27.2141 27.0826 27.2141 27.6003C27.2141 28.1171 27.6362 28.5372 28.1565 28.5343H36.8077C38.2217 28.5343 39.5213 27.5121 39.5213 26.0936V8.82738C39.5213 7.40789 38.2217 6.38625 36.8077 6.38625H12.9176C12.6531 5.72481 12.3038 5.02374 11.8638 4.26172C11.4521 3.40458 10.7842 2.27147 9.94834 1.36032C9.52621 0.89855 9.07088 0.489301 8.5016 0.224726V0.227203C8.21869 0.0934295 7.88228 0.00771505 7.53546 0.00028317Z" fill="#222222"/>
</svg>
