<svg width="71" height="70" viewBox="0 0 71 70" fill="none" xmlns="http://www.w3.org/2000/svg">
<path d="M15.9852 49.1318C15.4109 49.1318 14.9453 49.5974 14.9453 50.1718V52.3563C14.9453 52.9307 15.4109 53.3962 15.9852 53.3962C16.5596 53.3962 17.0252 52.9307 17.0252 52.3563V50.1718C17.025 49.5974 16.5596 49.1318 15.9852 49.1318Z" fill="white"/>
<path d="M26.125 13.3042C26.1221 13.2963 26.1191 13.2885 26.1159 13.2808C25.9292 12.8202 25.4877 12.5225 24.9913 12.5225C24.4946 12.5225 24.0532 12.82 23.8665 13.2808C23.8636 13.2874 23.8611 13.2943 23.8585 13.3011L20.9865 20.837C20.7819 21.3736 21.051 21.9745 21.5879 22.1789C22.1243 22.3838 22.7254 22.1143 22.9298 21.5775L23.389 20.3729H26.5705L27.0241 21.5743C27.1813 21.9907 27.577 22.2473 27.9971 22.2473C28.1191 22.2473 28.2433 22.2256 28.3642 22.1799C28.9014 21.9771 29.1726 21.3771 28.9698 20.8397L26.125 13.3042ZM24.1815 18.2931L24.9874 16.1788L25.7853 18.2931H24.1815Z" fill="white"/>
<path d="M52.9872 22.2589C53.5616 22.2589 54.0271 21.7933 54.0271 21.219V16.9027L57.3057 21.6526C57.309 21.6574 57.3123 21.6621 57.3156 21.6669C57.6229 22.0964 58.1288 22.2754 58.6045 22.1229C59.0888 21.9674 59.4017 21.5124 59.4017 20.9537L59.3311 13.5437C59.3254 12.9693 58.8547 12.5083 58.2813 12.5137C57.7069 12.5193 57.2458 12.9893 57.2513 13.5635L57.2935 17.9736L53.8431 12.9746C53.5846 12.6003 53.1128 12.4372 52.6778 12.5726C52.2433 12.708 51.9473 13.1103 51.9473 13.5654V21.2191C51.9473 21.7933 52.4128 22.2589 52.9872 22.2589Z" fill="white"/>
<path d="M35.9325 20.1634C35.9302 20.1634 35.9282 20.1634 35.926 20.1634C35.3667 20.1667 34.7754 20.1692 34.2967 20.17V13.5614C34.2967 12.9871 33.8311 12.5215 33.2567 12.5215C32.6824 12.5215 32.2168 12.9871 32.2168 13.5614V21.2033C32.2168 21.7025 32.5718 22.1314 33.0621 22.2248C33.1442 22.2405 33.1985 22.2509 34.0608 22.2509C34.4723 22.2509 35.068 22.2485 35.9387 22.2432C36.5129 22.2398 36.9757 21.7713 36.9723 21.1969C36.9687 20.6248 36.5038 20.1634 35.9325 20.1634Z" fill="white"/>
<path d="M16.2905 16.4717C15.3635 16.1295 14.5014 15.757 14.2241 15.6353C14.0573 15.4956 14.0631 15.3039 14.0745 15.2233C14.0916 15.1042 14.179 14.813 14.6231 14.6791C15.6564 14.3686 16.6212 15.1293 16.6492 15.1516C17.0886 15.5163 17.7404 15.4583 18.1085 15.0212C18.4785 14.5819 18.4225 13.9259 17.9831 13.5559C17.9095 13.4939 16.1562 12.0458 14.023 12.6877C12.9351 13.0157 12.166 13.8749 12.0154 14.9297C11.8742 15.9207 12.3051 16.8733 13.1398 17.4155C13.1848 17.4449 13.2322 17.4707 13.2813 17.4926C13.3255 17.5126 14.38 17.9834 15.5707 18.4231C15.8166 18.5137 16.6121 18.8494 16.5195 19.3678C16.4495 19.7608 15.9615 20.1674 15.2661 20.1674C14.5295 20.1674 13.8216 19.8719 13.3726 19.3771C12.9868 18.9517 12.3288 18.9198 11.9037 19.3055C11.4783 19.6914 11.4463 20.3491 11.8322 20.7744C12.6813 21.7104 13.933 22.2472 15.2661 22.2472C16.9191 22.2472 18.3074 21.1897 18.567 19.733C18.7632 18.6337 18.2677 17.1999 16.2905 16.4717Z" fill="white"/>
<path d="M44.0735 22.2475C46.7548 22.2475 48.9363 20.066 48.9363 17.3847C48.9363 14.7034 46.7548 12.522 44.0735 12.522C41.3923 12.522 39.2109 14.7034 39.2109 17.3847C39.2109 20.066 41.3923 22.2475 44.0735 22.2475ZM44.0735 14.6017C45.608 14.6017 46.8566 15.8501 46.8566 17.3847C46.8566 18.9193 45.6082 20.1677 44.0735 20.1677C42.5392 20.1677 41.2907 18.9193 41.2907 17.3847C41.2907 15.8501 42.5392 14.6017 44.0735 14.6017Z" fill="white"/>
<path d="M67.3029 36.3181V27.9167H68.5968C69.9024 27.9167 70.9647 26.8544 70.9647 25.5489V9.22388C70.9647 7.91838 69.9024 6.85613 68.5968 6.85613H64.3158L61.8199 1.2915C61.649 0.905077 61.2492 0 60.1969 0H10.7678C9.71537 0 9.31564 0.905077 9.1471 1.28623L6.64892 6.85613H2.36775C1.06225 6.85613 0 7.91838 0 9.22388V25.5489C0 26.8544 1.06225 27.9167 2.36775 27.9167H3.66161V61.7224C1.64175 62.0057 0.0823301 63.744 0.0823301 65.8405V68.2529C0.0823301 69.2163 0.865991 70 1.82942 70H69.1348C70.0961 70 70.8781 69.2163 70.8781 68.2529V65.8405C70.8781 63.7442 69.3204 62.0059 67.3028 61.7225V52.3564V36.3181H67.3029ZM11.0471 2.13213C11.0537 2.11716 11.0618 2.09914 11.0702 2.07987H59.8943C59.9036 2.10067 59.9123 2.12049 59.92 2.13739L62.0363 6.85613H8.92824L11.0471 2.13213ZM37.657 27.9167H65.2232V35.2782H39.4878C38.4552 35.2782 37.615 36.0284 37.615 36.9507V51.7235C37.615 52.6613 38.4376 53.3961 39.4878 53.3961H65.2232V61.6811H50.7558C50.1815 61.6811 49.7159 62.1466 49.7159 62.721C49.7159 63.2954 50.1815 63.7609 50.7558 63.7609H66.7229C67.8673 63.7609 68.7985 64.6939 68.7985 65.8407V67.9204H2.1622V65.8405C2.1622 64.6937 3.09514 63.7608 4.24194 63.7608H11.1528H30.0192H45.9546C46.529 63.7608 46.9946 63.2952 46.9946 62.7209C46.9946 62.1465 46.529 61.6809 45.9546 61.6809H31.0591V37.7758C31.0591 36.3986 29.9388 35.2783 28.5616 35.2783H12.6065C11.2314 35.2783 10.1129 36.3986 10.1129 37.7758V61.6811H5.74149V27.9167H32.8597C33.4341 27.9167 33.8996 27.4511 33.8996 26.8768C33.8996 26.3024 33.4341 25.8368 32.8597 25.8368H2.36775C2.21169 25.8368 2.07974 25.7049 2.07974 25.5488V23.1704H4.12787C4.70224 23.1704 5.16781 22.7048 5.16781 22.1304C5.16781 21.5561 4.70224 21.0905 4.12787 21.0905H2.07987V18.4241H4.12801C4.70238 18.4241 5.16795 17.9585 5.16795 17.3841C5.16795 16.8098 4.70238 16.3442 4.12801 16.3442H2.07987V13.6818H4.12801C4.70238 13.6818 5.16795 13.2162 5.16795 12.6418C5.16795 12.0675 4.70238 11.6019 4.12801 11.6019H2.07987V9.22347C2.07987 9.0674 2.21182 8.93545 2.36789 8.93545H68.5968C68.7528 8.93545 68.8849 9.0674 68.8849 9.22347V11.6019H66.8328C66.2584 11.6019 65.7928 12.0675 65.7928 12.6418C65.7928 13.2162 66.2584 13.6818 66.8328 13.6818H68.8849V16.3442H66.8328C66.2584 16.3442 65.7928 16.8098 65.7928 17.3841C65.7928 17.9585 66.2584 18.4241 66.8328 18.4241H68.8849V21.0905H66.8328C66.2584 21.0905 65.7928 21.5561 65.7928 22.1304C65.7928 22.7048 66.2584 23.1704 66.8328 23.1704H68.8849V25.5488C68.8849 25.7049 68.753 25.8368 68.5968 25.8368H37.657C37.0826 25.8368 36.6171 26.3024 36.6171 26.8768C36.6171 27.4511 37.0826 27.9167 37.657 27.9167ZM65.2232 37.358V51.3163L39.6949 51.3156V37.358H65.2232ZM12.1928 61.6811V37.7758C12.1928 37.5495 12.3822 37.358 12.6065 37.358H28.5616C28.788 37.358 28.9794 37.5493 28.9794 37.7758V61.6811H12.1928Z" fill="white"/>
</svg>
