<svg width="70" height="70" viewBox="0 0 70 70" fill="none" xmlns="http://www.w3.org/2000/svg">
<path d="M50.2295 31.7049C50.2295 32.8376 49.3114 33.7556 48.1787 33.7556C47.0465 33.7556 46.1279 32.8376 46.1279 31.7049C46.1279 30.5727 47.0465 29.6541 48.1787 29.6541C49.3114 29.6541 50.2295 30.5727 50.2295 31.7049Z" fill="white"/>
<path d="M48.1775 9.88487C44.0145 9.88487 40.6377 13.2537 40.6377 17.4247V17.4274C40.6377 18.5596 41.5557 19.4771 42.6885 19.4771C43.8212 19.4771 44.7393 18.5574 44.7393 17.4247C44.7393 15.5288 46.2725 13.9864 48.1802 13.9864C50.0772 13.9864 51.6206 15.5299 51.6206 17.4274C51.6206 19.3243 50.0772 20.8678 48.1802 20.8678C47.0475 20.8678 46.1294 21.7863 46.1294 22.9185V25.1151C46.1294 26.2479 47.0475 27.1659 48.1802 27.1659C49.3124 27.1659 50.231 26.2479 50.231 25.1151V24.6863C53.3963 23.7907 55.7222 20.8752 55.7222 17.4274C55.7222 13.2681 52.3389 9.88487 48.1775 9.88487Z" fill="white"/>
<path d="M19.679 52.3376C22.2275 50.3531 23.8713 47.2588 23.8713 43.7863C23.8713 37.8107 19.0092 32.9492 13.0337 32.9492C7.0581 32.9492 2.19658 37.8107 2.19658 43.7863C2.19658 47.2588 3.84041 50.3531 6.3884 52.3376C2.79205 54.4771 0 58.5178 0 63.5561V67.9492C0 69.082 0.918045 70 2.05078 70H24.0171C25.1493 70 26.0679 69.082 26.0679 67.9492V63.5561C26.0679 58.5188 23.2764 54.4776 19.679 52.3376ZM6.29814 43.7863C6.29814 40.0725 9.31984 37.0508 13.0342 37.0508C16.748 37.0508 19.7697 40.0725 19.7697 43.7863C19.7697 47.5007 16.748 50.5224 13.0342 50.5224C9.31984 50.5224 6.29814 47.5007 6.29814 43.7863ZM21.9663 65.8984H4.10156V63.5561C4.10156 58.6224 8.09311 54.6239 13.0337 54.6239C17.9673 54.6239 21.9658 58.6155 21.9658 63.5561V65.8984H21.9663Z" fill="white"/>
<path d="M61.3594 0H34.9999C30.2276 0 26.3594 3.86124 26.3594 8.64052V48.1795C26.3594 49.8569 28.2831 50.838 29.6406 49.8201L37.8801 43.6405H61.3594C66.1317 43.6405 69.9999 39.7793 69.9999 35V8.64052C69.9999 3.86818 66.1387 0 61.3594 0ZM65.8983 35C65.8983 37.509 63.8694 39.539 61.3594 39.539H37.1965C36.7527 39.539 36.3212 39.6831 35.966 39.9491L30.4609 44.0779V8.64052C30.4609 6.13152 32.4898 4.10156 34.9999 4.10156H61.3594C63.8684 4.10156 65.8983 6.13045 65.8983 8.64052V35Z" fill="white"/>
</svg>
