<svg width="94" height="64" viewBox="0 0 94 64" fill="none" xmlns="http://www.w3.org/2000/svg">
<path d="M92.874 3.51844L90.4654 1.12033C89.7402 0.397243 88.7727 0 87.7428 0C86.713 0 85.7455 0.399074 85.0203 1.12217L72.5478 13.5575V10.2276C72.5478 4.74312 68.6577 0.281914 63.8754 0.281914H8.6724C3.8901 0.281914 0 4.74312 0 10.2276V37.9229C0 43.4075 3.8901 47.8687 8.6724 47.8687H17.8001C17.8533 47.8687 17.9506 47.8687 18.0901 48.0755C18.2535 48.3153 18.3031 48.5863 18.2425 48.9066L16.2635 59.493C15.9753 61.071 16.5921 62.6252 17.8405 63.4581C18.393 63.8224 19.0044 64 19.6084 64C20.5006 64 21.3781 63.6137 22.0335 62.8723L33.5771 49.9501C34.8236 48.5496 36.2537 47.8687 37.9463 47.8687H63.8717C68.654 47.8687 72.5441 43.4075 72.5441 37.9229V29.222L92.8776 8.95169C94.3756 7.45059 94.3738 5.01404 92.874 3.51844ZM70.0511 27.5653C70.0437 27.5727 70.0346 27.5818 70.0272 27.5891L64.4537 33.1469L60.7545 29.4619L72.087 18.1633C72.1072 18.145 72.1274 18.1249 72.1458 18.1047L83.1717 7.11193L86.8708 10.7969L70.0511 27.5653ZM59.4988 32.3542L61.5531 34.4008L58.8581 35.0416L59.4988 32.3542ZM69.6068 37.9211C69.6068 41.7874 67.0348 44.9342 63.8754 44.9342H37.95C35.4037 44.9342 33.1934 45.9667 31.3833 47.9986L19.836 60.9246C19.6506 61.1333 19.5478 61.0637 19.4707 61.0143C19.21 60.8404 19.0815 60.4303 19.1567 60.0203L21.1339 49.4393C21.334 48.3702 21.1192 47.3012 20.5226 46.4243C19.8654 45.4632 18.8979 44.9342 17.8001 44.9342H8.6724C5.51112 44.9342 2.94098 41.7892 2.94098 37.9211V10.2276C2.94098 6.35955 5.51112 3.21455 8.6724 3.21455H63.8754C67.0367 3.21455 69.6068 6.36138 69.6068 10.2276V16.4883L57.6373 28.4221C57.4445 28.6143 57.3087 28.8559 57.2463 29.1195L55.4453 36.68C55.3278 37.1761 55.4747 37.6959 55.8364 38.0566C56.1154 38.3348 56.4899 38.4849 56.8754 38.4849C56.9893 38.4849 57.1031 38.4721 57.2169 38.4447L64.7933 36.6433C65.0577 36.5811 65.3 36.4456 65.4928 36.2534L69.6087 32.151V37.9211H69.6068ZM90.7958 6.88127L88.949 8.72287L85.2498 5.03784L87.0985 3.19442C87.2692 3.02417 87.4968 2.93081 87.7428 2.93081C87.9888 2.93081 88.2165 3.02417 88.3872 3.19442C88.3872 3.19442 88.3872 3.19442 88.3891 3.19625L90.7976 5.59252C91.152 5.94583 91.1501 6.52613 90.7958 6.88127ZM23.693 22.5714V11.1246C23.693 10.3155 24.3503 9.65831 25.1635 9.65831C25.9768 9.65831 26.634 10.3137 26.634 11.1246V21.1051H31.0602C31.8716 21.1051 32.5307 21.7605 32.5307 22.5714C32.5307 23.3824 31.8734 24.0378 31.0602 24.0378H25.1635C24.3521 24.0378 23.693 23.3824 23.693 22.5714ZM38.1831 24.0378C42.0861 24.0378 45.2639 20.8708 45.2639 16.9771V16.7171C45.2639 12.8253 42.0879 9.65648 38.1831 9.65648C34.2784 9.65648 31.1042 12.8234 31.1042 16.7171V16.9771C31.1042 20.8708 34.2802 24.0378 38.1831 24.0378ZM34.0434 16.719C34.0434 14.4435 35.9012 12.5909 38.1831 12.5909C40.4651 12.5909 42.3229 14.4435 42.3229 16.719V16.9789C42.3229 19.2544 40.4651 21.1069 38.1831 21.1069C35.9012 21.1069 34.0434 19.2544 34.0434 16.9789V16.719ZM13.2105 24.0378H18.0442C20.4381 24.0378 22.3878 22.0955 22.3878 19.7065C22.3878 18.3263 21.7342 17.0961 20.7209 16.3034C21.1486 15.6334 21.3983 14.8389 21.3983 13.9877C21.3983 11.6006 19.4523 9.65648 17.0602 9.65648H13.2105C12.3991 9.65648 11.74 10.3118 11.74 11.1228V22.5696C11.74 23.3824 12.3991 24.0378 13.2105 24.0378ZM18.0442 21.1069H14.681V18.3153H18.0461C18.819 18.3153 19.4486 18.9395 19.4486 19.7084C19.4468 20.479 18.819 21.1069 18.0442 21.1069ZM14.681 12.5909H17.0621C17.8331 12.5909 18.4591 13.2188 18.4591 13.9895C18.4591 14.7584 17.8331 15.3826 17.0621 15.3826H14.681V12.5909ZM46.6481 16.9789V16.719C46.6481 12.8271 49.8241 9.65831 53.7288 9.65831C55.6289 9.65831 57.4152 10.4034 58.759 11.758C59.3299 12.3328 59.3262 13.2609 58.748 13.8321C58.1715 14.4014 57.2408 14.3978 56.668 13.8211C55.8804 13.0266 54.834 12.5891 53.727 12.5891C51.4451 12.5891 49.5872 14.4417 49.5872 16.7171V16.9771C49.5872 19.2525 51.4451 21.1051 53.727 21.1051C55.5885 21.1051 57.1673 19.8731 57.6869 18.1835H55.102C54.2906 18.1835 53.6315 17.5281 53.6315 16.7171C53.6315 15.9062 54.2888 15.2508 55.102 15.2508H59.3373C60.1487 15.2508 60.8077 15.9062 60.8077 16.7171V16.9771C60.8077 20.869 57.6318 24.0378 53.727 24.0378C49.8222 24.0378 46.6481 20.8708 46.6481 16.9789ZM54.2135 29.5406C54.2135 30.3497 53.5563 31.0069 52.743 31.0069H13.2105C12.3991 31.0069 11.74 30.3515 11.74 29.5406C11.74 28.7296 12.3973 28.0743 13.2105 28.0743H52.7448C53.5563 28.0761 54.2135 28.7314 54.2135 29.5406ZM52.284 37.6099C52.284 38.419 51.6268 39.0762 50.8136 39.0762H13.2105C12.3991 39.0762 11.74 38.4209 11.74 37.6099C11.74 36.799 12.3973 36.1436 13.2105 36.1436H50.8136C51.625 36.1454 52.284 36.8008 52.284 37.6099Z" fill="white"/>
</svg>
