<svg width="73" height="73" viewBox="0 0 73 73" fill="none" xmlns="http://www.w3.org/2000/svg">
<path d="M72.7245 48.1468C72.2025 46.606 70.9559 45.4869 69.2144 44.9958C67.3402 44.4674 64.9031 44.6358 61.9702 45.4962L48.6193 49.4129C48.5632 49.2987 48.503 49.1859 48.4387 49.0745C47.6932 47.7831 46.4937 46.8606 45.0616 46.4768L35.5765 43.9352C28.6542 39.0844 24.9447 40.4779 19.49 43.1455C16.8803 44.4216 14.2877 45.6555 11.8365 46.8139L11.3224 45.5795C10.6401 43.9417 8.75183 43.1624 7.11332 43.843L1.9897 45.9705C1.19098 46.3023 0.570775 46.9219 0.243456 47.7154C-0.0838636 48.5088 -0.0810559 49.3856 0.251435 50.1839L8.92753 71.0173C9.44208 72.2533 10.6433 73.0001 11.9059 73C12.3167 73 12.7342 72.9209 13.1366 72.7538L18.2602 70.6263C19.0589 70.2946 19.6791 69.6749 20.0064 68.8814C20.3338 68.088 20.331 67.2113 19.9985 66.413L19.4173 65.0174L22.7567 63.3938C23.9764 62.8008 25.2025 62.6963 26.5051 63.0743L37.1624 66.1687C37.9471 66.3966 38.7579 66.4941 39.5807 66.4941C42.4132 66.494 45.3836 65.3382 47.8804 64.3666C48.1003 64.2809 48.3162 64.197 48.5272 64.1157L68.5284 56.4081C71.7665 55.1607 73.7664 51.2229 72.7245 48.1468ZM18.0939 68.0929C17.9775 68.3751 17.7548 68.5965 17.4666 68.716L12.343 70.8435C11.7567 71.0866 11.0812 70.8082 10.8372 70.2221L2.16126 49.3888C2.04142 49.101 2.0395 48.787 2.15594 48.5049C2.27239 48.2226 2.49509 48.0012 2.78325 47.8817L7.90671 45.754C8.05064 45.6943 8.1999 45.666 8.34693 45.666C8.79868 45.666 9.2284 45.9331 9.41253 46.3751L18.0886 67.2087C18.2085 67.4966 18.2104 67.8106 18.0939 68.0929ZM67.7844 54.478L47.7832 62.1856C47.5701 62.2678 47.3521 62.3526 47.13 62.439C44.1992 63.5796 40.5516 64.9989 37.7392 64.1825L27.0819 61.0881C25.2898 60.5678 23.5301 60.7178 21.852 61.5336L18.6205 63.1048L12.6325 48.7261C15.1165 47.5525 17.747 46.3008 20.3986 45.0044C25.497 42.5111 28.4412 41.4114 34.5325 45.7308C34.6327 45.8018 34.7445 45.8544 34.863 45.8862L44.5261 48.4754C45.4244 48.716 46.1776 49.2963 46.647 50.1091C47.1161 50.9218 47.2421 51.8643 47.0013 52.7627C46.7608 53.6611 46.1804 54.4142 45.3675 54.8835C44.5548 55.3527 43.6126 55.4786 42.714 55.2379L29.8723 51.7968C29.3203 51.6493 28.7532 51.9764 28.6054 52.5283C28.4575 53.0801 28.7849 53.6472 29.3369 53.7952L42.1786 57.2361C43.6107 57.62 45.1106 57.4205 46.402 56.675C47.6934 55.9293 48.6159 54.73 48.9998 53.2979C49.1672 52.6728 49.2237 52.0347 49.1721 51.4067L62.5526 47.4812C66.9737 46.1844 70.0437 46.6812 70.765 48.8104C71.4483 50.8279 69.9719 53.6351 67.7844 54.478ZM33.1369 37.6244L37.6084 36.722L39.0625 41.0457C39.1921 41.4311 39.5355 41.7047 39.9401 41.7452C39.9745 41.7486 40.009 41.7504 40.0432 41.7504C40.41 41.7504 40.7529 41.5553 40.9388 41.2332L46.8547 30.9864C47.6603 31.1153 48.4859 31.1831 49.327 31.1831C50.1683 31.1831 50.9937 31.1153 51.7992 30.9864L57.7152 41.2332C57.9011 41.5553 58.244 41.7504 58.6107 41.7504C58.6449 41.7504 58.6793 41.7486 58.7139 41.7452C59.1185 41.7047 59.4619 41.4311 59.5915 41.0457L61.0456 36.722L65.5171 37.6244C65.9156 37.7047 66.3244 37.5445 66.5617 37.2142C66.799 36.8841 66.8209 36.4453 66.6176 36.0933L60.8429 26.0914C63.3732 23.3186 64.9185 19.6322 64.9185 15.5915C64.9186 6.99429 57.9242 0 49.327 0C40.7298 0 33.7354 6.99443 33.7354 15.5916C33.7354 19.6324 35.2806 23.3187 37.811 26.0915L32.0364 36.0935C31.8331 36.4456 31.8549 36.8842 32.0923 37.2143C32.3296 37.5445 32.7388 37.7048 33.1369 37.6244ZM60.5606 34.5136C60.0498 34.4102 59.5417 34.7038 59.3755 35.1978L58.361 38.2143L53.9053 30.4968C55.9051 29.8814 57.7346 28.8734 59.3038 27.5634L63.68 35.1433L60.5606 34.5136ZM49.327 2.06883C56.7834 2.06883 62.8498 8.1351 62.8498 15.5916C62.8498 23.0481 56.7835 29.1144 49.327 29.1144C41.8705 29.1144 35.8042 23.0481 35.8042 15.5916C35.8042 8.1351 41.8705 2.06883 49.327 2.06883ZM39.35 27.5634C40.9193 28.8732 42.7487 29.8812 44.7485 30.4968L40.2928 38.2143L39.2784 35.1978C39.1121 34.7037 38.6035 34.4102 38.0932 34.5136L34.9737 35.1433L39.35 27.5634ZM45.8468 13.4476C45.8468 12.0121 46.8683 10.7931 48.2744 10.3795L48.2639 9.94178C48.2503 9.37064 48.7022 8.89658 49.2734 8.88298C49.8396 8.8688 50.3186 9.32128 50.3321 9.89243L50.3443 10.3988C51.106 10.6244 51.9439 11.0696 52.3612 11.7046C52.6751 12.1819 52.5424 12.8234 52.0649 13.1371C51.5876 13.4508 50.9462 13.3183 50.6324 12.8408C50.4839 12.6413 49.7162 12.2979 49.327 12.2979C48.5488 12.2979 47.9156 12.8136 47.9156 13.4476C47.9156 14.0815 48.5488 14.5973 49.327 14.5973C51.246 14.5973 52.8072 16.0412 52.8072 17.8158C52.8072 19.2507 51.7865 20.4693 50.3814 20.8833L50.3901 21.241C50.4038 21.8122 49.9521 22.2864 49.3809 22.3001C49.3725 22.3003 49.3639 22.3004 49.3555 22.3004C48.7957 22.3004 48.3354 21.8537 48.3218 21.291L48.3125 20.9025C47.5593 20.6914 47.04 20.2563 46.5709 19.8137C46.1553 19.4216 46.1363 18.767 46.5283 18.3513C46.9202 17.9358 47.575 17.9167 47.9907 18.3087C48.5215 18.8095 48.7751 18.9654 49.3271 18.9654C50.1055 18.9654 50.7385 18.4497 50.7385 17.8158C50.7385 17.1818 50.1053 16.6661 49.3271 16.6661C47.408 16.6661 45.8468 15.2223 45.8468 13.4476ZM49.327 24.6227C54.3068 24.6227 58.3582 20.5713 58.3582 15.5915C58.3582 10.6116 54.3068 6.56027 49.327 6.56027C44.3472 6.56027 40.2958 10.6116 40.2958 15.5915C40.2958 20.5713 44.3472 24.6227 49.327 24.6227ZM49.327 8.62926C53.166 8.62926 56.2894 11.7526 56.2894 15.5916C56.2894 19.4306 53.166 22.554 49.327 22.554C45.488 22.554 42.3646 19.4306 42.3646 15.5916C42.3646 11.7526 45.488 8.62926 49.327 8.62926Z" fill="white"/>
</svg>
