<svg width="112" height="38" viewBox="0 0 112 38" fill="none" xmlns="http://www.w3.org/2000/svg">
<path d="M13.6 29.64C11.04 29.64 8.78667 29.0267 6.84 27.8C4.89333 26.5733 3.36 24.8667 2.24 22.68C1.12 20.4933 0.56 17.9467 0.56 15.04C0.56 12.1333 1.12 9.6 2.24 7.44C3.36 5.25333 4.92 3.54666 6.92 2.32C8.94667 1.09333 11.28 0.479998 13.92 0.479998C16.88 0.479998 19.4267 1.22667 21.56 2.72C23.72 4.18667 25.2667 6.21333 26.2 8.8L21.32 10.6C20.7333 8.97333 19.8 7.70667 18.52 6.8C17.2667 5.89333 15.7333 5.44 13.92 5.44C12.2667 5.44 10.8133 5.82667 9.56 6.6C8.33333 7.37333 7.38667 8.48 6.72 9.92C6.08 11.3333 5.76 13.04 5.76 15.04C5.76 17.04 6.08 18.76 6.72 20.2C7.38667 21.64 8.33333 22.7467 9.56 23.52C10.8133 24.2933 12.2667 24.68 13.92 24.68C14.7733 24.68 15.6533 24.56 16.56 24.32C17.4667 24.08 18.2933 23.6667 19.04 23.08C19.8133 22.4667 20.4267 21.6267 20.88 20.56C21.36 19.4933 21.6 18.1333 21.6 16.48V14.88L22.76 18.48H14.76V13.84H26.2V29H21.64L20.92 24.48L21.8 25.16C21.32 26.1467 20.6667 26.9733 19.84 27.64C19.0133 28.3067 18.0667 28.8 17 29.12C15.96 29.4667 14.8267 29.64 13.6 29.64ZM35.4541 29.4C34.0941 29.4 32.9741 28.9867 32.0941 28.16C31.2141 27.3333 30.7741 26.0267 30.7741 24.24V1.12H35.6941V23.28C35.6941 23.84 35.8274 24.24 36.0941 24.48C36.3607 24.6933 36.7074 24.8 37.1341 24.8C37.3474 24.8 37.5741 24.7867 37.8141 24.76C38.0541 24.7067 38.3074 24.64 38.5741 24.56V28.8C38.0141 29.0133 37.4541 29.16 36.8941 29.24C36.3607 29.3467 35.8807 29.4 35.4541 29.4ZM41.9469 29V9.28H46.9069V29H41.9469ZM41.7869 6.24V1.12H47.1069V6.24H41.7869ZM51.7916 29V9.28H56.7916V14.4L55.7116 15.24C55.8982 13.9867 56.2182 12.9467 56.6716 12.12C57.1249 11.2933 57.6582 10.6533 58.2716 10.2C58.9116 9.72 59.5649 9.38667 60.2316 9.2C60.9249 8.98667 61.6049 8.88 62.2716 8.88C63.3116 8.88 64.2982 9.08 65.2316 9.48C66.1649 9.85333 66.9782 10.5067 67.6716 11.44C68.3649 12.3733 68.8449 13.6533 69.1116 15.28L66.1516 16.36C66.5516 14.4933 67.1249 13.0133 67.8716 11.92C68.6449 10.8267 69.5249 10.0533 70.5116 9.6C71.5249 9.12 72.5916 8.88 73.7116 8.88C75.3916 8.88 76.7516 9.25333 77.7916 10C78.8316 10.7467 79.5916 11.7067 80.0716 12.88C80.5782 14.0267 80.8316 15.2533 80.8316 16.56V29H75.8716V17.76C75.8716 16.7733 75.7382 15.9467 75.4716 15.28C75.2316 14.5867 74.8716 14.0667 74.3916 13.72C73.9116 13.3733 73.2849 13.2 72.5116 13.2C71.7116 13.2 71.0316 13.4133 70.4716 13.84C69.9116 14.2667 69.4849 14.9067 69.1916 15.76C68.9249 16.6133 68.7916 17.7067 68.7916 19.04V29H63.8316V17.68C63.8316 16.1867 63.5516 15.0667 62.9916 14.32C62.4582 13.5733 61.6716 13.2 60.6316 13.2C59.8049 13.2 59.0982 13.4133 58.5116 13.84C57.9516 14.2667 57.5249 14.9067 57.2316 15.76C56.9382 16.6133 56.7916 17.7067 56.7916 19.04V29H51.7916ZM86.5556 37.16L90.5556 27.48L83.1156 9.28H88.5556L93.1956 22.52L97.9156 9.28H103.276L91.9556 37.16H86.5556ZM106.082 29V23.72H111.362V29H106.082Z" fill="white"/>
</svg>
