<svg width="51" height="50" viewBox="0 0 51 50" fill="none" xmlns="http://www.w3.org/2000/svg">
<path d="M42.9644 18.7166C43.823 18.7166 44.6623 18.4619 45.3763 17.9849C46.0902 17.5079 46.6466 16.8299 46.9752 16.0366C47.3038 15.2433 47.3898 14.3704 47.2222 13.5283C47.0547 12.6862 46.6413 11.9126 46.0341 11.3055C45.427 10.6983 44.6534 10.2849 43.8113 10.1174C42.9692 9.94984 42.0963 10.0358 41.303 10.3644C40.5097 10.693 39.8317 11.2494 39.3547 11.9633C38.8777 12.6773 38.623 13.5166 38.623 14.3752C38.6246 15.5261 39.0825 16.6295 39.8963 17.4433C40.7101 18.2571 41.8135 18.715 42.9644 18.7166ZM42.9644 11.5236C43.5284 11.5236 44.0797 11.6908 44.5486 12.0042C45.0176 12.3175 45.3831 12.7629 45.5989 13.284C45.8148 13.805 45.8712 14.3784 45.7612 14.9316C45.6512 15.4847 45.3796 15.9929 44.9808 16.3917C44.582 16.7905 44.0738 17.0621 43.5207 17.1721C42.9675 17.2821 42.3941 17.2257 41.8731 17.0098C41.352 16.794 40.9066 16.4285 40.5933 15.9595C40.28 15.4906 40.1127 14.9392 40.1127 14.3752C40.1133 13.6189 40.4138 12.8937 40.9484 12.3587C41.483 11.8237 42.208 11.5226 42.9644 11.5215V11.5236Z" fill="white"/>
<path d="M42.9639 28.5705C42.7093 28.5714 42.4549 28.5871 42.2021 28.6174C39.5397 27.683 36.9833 26.4704 34.5754 24.9996C36.9809 23.5228 39.5373 22.3076 42.2012 21.3746C42.4541 21.4049 42.7085 21.4205 42.9631 21.4214C44.5586 21.4254 46.1085 20.8891 47.3605 19.9C48.6124 18.9109 49.4927 17.5271 49.858 15.974C50.2234 14.4208 50.0523 12.7897 49.3725 11.3462C48.6928 9.90272 47.5445 8.73179 46.1145 8.02404C44.6845 7.31629 43.0571 7.1134 41.4971 7.44839C39.9371 7.78338 38.5365 8.63653 37.5231 9.86896C36.5098 11.1014 35.9434 12.6405 35.9163 14.2358C35.8891 15.8311 36.4027 17.3887 37.3734 18.6549L29.9251 21.0809L22.3674 19.6568C22.8931 17.6096 23.5434 14.9874 24.0456 12.0974C25.2374 5.25899 23.8098 0.698065 23.7477 0.507387C23.6853 0.321941 23.5525 0.168484 23.3779 0.0801783C23.2033 -0.00812725 23.001 -0.024189 22.8146 0.035464C22.6283 0.095117 22.4729 0.225694 22.3821 0.398976C22.2912 0.572259 22.2722 0.774331 22.3291 0.961522C22.3427 1.00408 23.6996 5.39051 22.5777 11.8425C22.0767 14.7222 21.423 17.3444 20.8995 19.3806L16.4709 18.5468C17.249 15.8202 17.5852 12.9866 17.4668 10.1536C17.4516 9.95662 17.3586 9.77379 17.2085 9.64532C17.0584 9.51685 16.8634 9.45327 16.6665 9.46857C16.4695 9.48387 16.2867 9.57678 16.1582 9.72688C16.0297 9.87698 15.9661 10.072 15.9814 10.2689C16.0797 12.9713 15.7483 15.6721 14.9995 18.2706L10.0811 17.3444C12.3318 7.01424 9.23283 0.671676 9.09664 0.400557C9.00601 0.22761 8.8511 0.0971631 8.66525 0.0373015C8.47939 -0.0225601 8.27747 -0.00704979 8.10294 0.0804933C7.92841 0.168036 7.79524 0.320611 7.73209 0.505371C7.66894 0.69013 7.68087 0.892299 7.7653 1.06835C7.79637 1.13049 10.7604 7.25812 8.61654 17.0686L4.63147 16.3187C4.00275 16.2021 3.35564 16.2316 2.74015 16.405C2.12466 16.5783 1.55726 16.8909 1.08181 17.3185L0.246751 18.0722C0.14947 18.1597 0.0769531 18.2713 0.0364983 18.3957C-0.00395654 18.5202 -0.0109216 18.653 0.0163043 18.781C0.0435301 18.909 0.103986 19.0275 0.191588 19.1247C0.279189 19.2219 0.390844 19.2943 0.515316 19.3346L7.38565 21.5704C6.68358 23.9623 6.19728 26.4123 5.93259 28.891L0.515316 30.6561C0.391105 30.6965 0.279712 30.7689 0.192314 30.866C0.104916 30.9631 0.044586 31.0814 0.0173779 31.2092C-0.00983025 31.3369 -0.00295988 31.4696 0.0372997 31.5939C0.0775593 31.7181 0.149792 31.8296 0.246751 31.9172L1.08096 32.6705C1.84756 33.3599 2.84206 33.7413 3.87302 33.7414C4.12734 33.7413 4.3811 33.7177 4.63105 33.6707L5.82278 33.4464C5.94847 36.4782 6.75772 39.4425 8.19007 42.1175C10.2008 45.8207 13.5375 48.6264 17.5307 49.9719C17.5951 49.9899 17.6617 49.9991 17.7286 49.9991C17.8751 49.9992 18.0184 49.956 18.1405 49.875C18.2626 49.7939 18.3581 49.6787 18.4151 49.5437C18.472 49.4086 18.4878 49.2598 18.4606 49.1158C18.4333 48.9719 18.3642 48.8391 18.2619 48.7342C16.3608 46.817 15.0466 44.3969 14.4739 41.7583C15.9148 44.5883 18.1764 46.9173 20.9629 48.4405C22.6418 49.365 24.5079 49.8981 26.4219 50C26.5676 50 26.7102 49.9572 26.8319 49.8769C26.9536 49.7967 27.049 49.6825 27.1064 49.5485C27.1638 49.4145 27.1807 49.2666 27.1548 49.1232C27.129 48.9797 27.0617 48.847 26.9611 48.7414C26.8862 48.6623 20.4828 41.7681 20.5049 30.6846L29.9281 28.911L37.3764 31.3371C36.4116 32.5998 35.9024 34.1518 35.9314 35.7407C35.9605 37.3296 36.5262 38.8619 37.5365 40.0886C38.5468 41.3152 39.9423 42.1641 41.4962 42.4971C43.05 42.8301 44.6709 42.6277 46.0951 41.9227C47.5194 41.2178 48.6633 40.0519 49.3409 38.6144C50.0185 37.177 50.19 35.5526 49.8274 34.0054C49.4648 32.4581 48.5895 31.079 47.3438 30.0923C46.0981 29.1056 44.5552 28.5693 42.9661 28.5705H42.9639ZM39.2045 18.4583C38.6357 17.9408 38.1819 17.3097 37.8721 16.606C37.5624 15.9022 37.4037 15.1413 37.4062 14.3723C37.4063 13.2731 37.7323 12.1986 38.3431 11.2847C38.9538 10.3708 39.8218 9.65855 40.8374 9.23797C41.8529 8.81738 42.9704 8.70738 44.0485 8.92188C45.1265 9.13637 46.1168 9.66572 46.894 10.443C47.6712 11.2203 48.2005 12.2106 48.4149 13.2887C48.6293 14.3667 48.5192 15.4842 48.0986 16.4997C47.6779 17.5152 46.9656 18.3832 46.0516 18.9939C45.1377 19.6045 44.0631 19.9305 42.9639 19.9305C42.7136 19.9282 42.4636 19.9093 42.2157 19.8739C42.0964 19.8579 41.9751 19.871 41.862 19.9122C33.0504 23.112 30.2333 26.4105 29.5178 27.4733L20.5458 29.1617C20.6139 27.955 20.755 26.7536 20.9684 25.564L38.9308 19.7143C39.0544 19.6741 39.1654 19.6022 39.2526 19.5058C39.3399 19.4094 39.4003 19.2918 39.428 19.1648C39.4557 19.0378 39.4496 18.9057 39.4104 18.7817C39.3712 18.6578 39.3002 18.5463 39.2045 18.4583ZM4.35567 17.7828L26.9777 22.039L20.3074 24.2097L2.20587 18.3174C2.50506 18.0796 2.85182 17.9088 3.2227 17.8166C3.59359 17.7243 3.97995 17.7128 4.35567 17.7828ZM4.35567 32.2079C3.97994 32.2774 3.59369 32.2656 3.22287 32.1734C2.85206 32.0812 2.50529 31.9107 2.20587 31.6733L5.81341 30.4986C5.78958 30.9861 5.77795 31.4666 5.77851 31.9402L4.35567 32.2079ZM14.23 37.2574C14.1821 37.0967 14.0815 36.9569 13.9443 36.8606C13.8071 36.7642 13.6414 36.717 13.474 36.7265C13.3066 36.736 13.1473 36.8017 13.0219 36.9129C12.8965 37.0242 12.8123 37.1745 12.7829 37.3396C12.3566 40.826 13.2029 44.3492 15.1664 47.2616C12.7887 45.8448 10.8303 43.8216 9.49161 41.3991C6.76765 36.4649 6.54207 29.95 8.79998 22.0335L13.2081 23.4691C12.2058 26.9498 12.3696 29.1111 12.3773 29.209C12.3931 29.3947 12.478 29.5677 12.6152 29.6938C12.7524 29.8199 12.9319 29.8899 13.1183 29.89C13.1387 29.89 13.1587 29.89 13.1792 29.8874C13.3756 29.871 13.5575 29.7775 13.6851 29.6273C13.8128 29.4771 13.8757 29.2824 13.8602 29.086C13.8602 29.0651 13.7218 27.0975 14.6263 23.9296L19.46 25.5044C18.7385 29.4522 18.8261 33.5054 19.7175 37.4183C20.6089 41.3312 22.2855 45.0224 24.6458 48.2682C21.8992 47.6382 16.6944 45.374 14.2317 37.2574H14.23ZM42.9622 41.1731C41.4893 41.171 40.0773 40.5848 39.0358 39.5433C37.9942 38.5017 37.4082 37.0896 37.4062 35.6166C37.4037 34.8477 37.5624 34.0868 37.8721 33.383C38.1819 32.6792 38.6357 32.0482 39.2045 31.5307C39.3002 31.4427 39.3712 31.3312 39.4104 31.2072C39.4496 31.0833 39.4557 30.9512 39.428 30.8242C39.4003 30.6971 39.3399 30.5796 39.2526 30.4832C39.1654 30.3868 39.0544 30.3149 38.9308 30.2747L31.1845 27.7525C31.8054 27.0659 32.4971 26.4467 33.2479 25.9053C35.9431 27.6329 38.8346 29.0331 41.8612 30.0764C41.9743 30.1175 42.0956 30.1305 42.2149 30.1143C42.4627 30.0788 42.7127 30.0599 42.9631 30.0576C44.4371 30.0576 45.8507 30.6432 46.893 31.6855C47.9353 32.7277 48.5208 34.1414 48.5208 35.6154C48.5208 37.0894 47.9353 38.503 46.893 39.5453C45.8507 40.5876 44.4371 41.1731 42.9631 41.1731H42.9622Z" fill="white"/>
<path d="M42.9644 31.2742C42.1057 31.2742 41.2664 31.5288 40.5525 32.0058C39.8385 32.4828 39.2821 33.1609 38.9535 33.9541C38.6249 34.7474 38.539 35.6203 38.7065 36.4624C38.874 37.3046 39.2874 38.0781 39.8946 38.6852C40.5017 39.2924 41.2753 39.7059 42.1174 39.8734C42.9595 40.0409 43.8324 39.9549 44.6257 39.6263C45.419 39.2977 46.097 38.7413 46.574 38.0274C47.0511 37.3135 47.3057 36.4741 47.3057 35.6155C47.3041 34.4646 46.8462 33.3613 46.0324 32.5474C45.2186 31.7336 44.1153 31.2757 42.9644 31.2742ZM42.9644 38.4692C42.4004 38.4692 41.849 38.302 41.3801 37.9887C40.9111 37.6753 40.5456 37.23 40.3298 36.7089C40.1139 36.1878 40.0575 35.6144 40.1675 35.0613C40.2775 34.5081 40.5491 34 40.9479 33.6012C41.3468 33.2024 41.8549 32.9308 42.408 32.8208C42.9612 32.7107 43.5346 32.7672 44.0556 32.983C44.5767 33.1989 45.0221 33.5644 45.3354 34.0333C45.6488 34.5023 45.816 35.0536 45.816 35.6176C45.8149 36.3736 45.5141 37.0982 44.9795 37.6328C44.445 38.1673 43.7203 38.4681 42.9644 38.4692Z" fill="white"/>
<path d="M28.8208 24.0271C28.6293 24.0271 28.4421 24.0839 28.2829 24.1903C28.1236 24.2967 27.9995 24.4479 27.9262 24.6248C27.853 24.8018 27.8338 24.9965 27.8711 25.1843C27.9085 25.3721 28.0007 25.5446 28.1361 25.6801C28.2716 25.8155 28.4441 25.9077 28.6319 25.9451C28.8197 25.9824 29.0144 25.9632 29.1914 25.89C29.3683 25.8167 29.5195 25.6926 29.6259 25.5333C29.7323 25.3741 29.7891 25.1869 29.7891 24.9954C29.789 24.7386 29.6869 24.4924 29.5054 24.3108C29.3238 24.1293 29.0776 24.0272 28.8208 24.0271Z" fill="white"/>
</svg>
