<svg width="51" height="50" viewBox="0 0 51 50" fill="none" xmlns="http://www.w3.org/2000/svg">
<path d="M30.9047 38.0029C30.2968 37.9504 29.6818 37.8491 29.0767 37.7018C26.3064 37.027 23.9564 35.14 22.7881 32.6559C21.6221 30.1766 21.9538 28.0656 22.4333 25.3696C22.767 23.4925 23.1122 21.5515 22.7202 19.5311C22.6571 19.2065 22.579 18.8873 22.4869 18.5741C23.782 20.1979 24.8015 22.0766 25.26 23.5901C25.3573 23.9114 25.6525 24.1185 25.9717 24.1185C26.4699 24.1185 26.8288 23.6367 26.6839 23.1586C25.7738 20.1547 23.001 16.0412 19.9128 14.2915C18.7884 13.2206 17.4241 12.4834 15.9265 12.146C14.6439 11.8566 13.3467 11.9076 13.0933 11.9705C12.8697 12.0261 12.6514 12.0893 12.4378 12.1586C13.141 11.6644 13.911 11.2639 14.7204 10.9867C16.6877 10.3131 19.8129 10.0504 23.5305 12.6262C23.8683 12.8601 24.3317 12.7761 24.5656 12.4383C24.7995 12.1006 24.7155 11.6372 24.3777 11.4032C20.1493 8.47369 16.53 8.79436 14.2382 9.57922C11.1651 10.6317 8.57158 13.2195 7.60669 16.186C7.45484 16.4591 7.31211 16.7437 7.17949 17.041C6.71302 18.086 6.36467 19.2933 6.13476 20.6511C4.73582 20.8778 3.54825 21.5359 2.76676 22.4496C1.44688 19.8346 1.37626 17.0195 1.5656 15.0639C1.89084 11.7045 3.18285 8.77521 5.20379 6.81528C5.29425 6.7274 5.39224 6.63615 5.50333 6.53636C5.80883 6.26161 5.83382 5.79127 5.55907 5.48577C5.28433 5.18028 4.81398 5.15528 4.50848 5.43003C4.38301 5.54281 4.27133 5.64685 4.16758 5.74773C1.89401 7.95275 0.443997 11.2104 0.0848407 14.9206C-0.216688 18.0361 0.260203 21.2913 1.92357 23.9875C1.82359 24.3317 1.77053 24.6914 1.77053 25.0617C1.77053 27.4208 3.97555 29.3601 6.76846 29.5441C7.67196 31.6196 9.14042 33.4288 10.8867 34.7847V40.5546C10.8867 40.6093 10.8499 40.6587 10.797 40.6748C8.81836 41.2741 6.29891 41.8238 4.30813 43.065C2.3348 44.2953 1.3342 45.9789 1.3342 48.0689V48.5698C1.3342 49.3584 1.97584 50 2.76448 50H29.3254C30.114 50 30.7557 49.3584 30.7557 48.5698V48.0689C30.7557 45.9789 29.7551 44.2953 27.7817 43.065C26.1704 42.0603 24.1931 41.5016 22.4485 41.0086C22.0398 40.8931 21.6537 40.7841 21.2926 40.6747C21.24 40.6587 21.2032 40.6093 21.2032 40.5546V34.7808C21.4469 34.5918 21.6866 34.393 21.9209 34.185C23.3842 36.6262 25.862 38.4501 28.725 39.1475C29.4035 39.3126 30.0939 39.4263 30.7771 39.4852C31.1853 39.5207 31.5468 39.218 31.5822 38.8081C31.6173 38.3987 31.3141 38.0382 30.9047 38.0029ZM3.25833 25.0617C3.25833 23.7649 4.37597 22.6254 5.92914 22.2149C5.84543 23.0814 5.80258 23.9984 5.80258 24.9659C5.80258 26.006 5.94253 26.9984 6.21222 27.9757C4.51513 27.6395 3.25833 26.4606 3.25833 25.0617ZM20.8615 42.0986C22.7255 42.6634 25.2041 43.2112 26.9944 44.3274C28.5454 45.2944 29.2678 46.4833 29.2678 48.0688V48.5121H2.82201V48.0688C2.82201 46.4833 3.54439 45.2944 5.09537 44.3274C6.886 43.211 9.3631 42.6636 11.2281 42.0987C11.9139 41.8912 12.3745 41.2706 12.3745 40.5546V35.7869C13.6732 36.5346 14.9772 36.9637 16.0445 36.9637C17.1205 36.9637 18.4227 36.5285 19.7152 35.783V40.5545C19.7153 41.2706 20.1759 41.8912 20.8615 42.0986ZM16.0445 35.476C13.2805 35.476 7.29038 31.2471 7.29038 24.966C7.29038 22.2897 7.62088 19.1833 8.94145 16.845C8.94562 16.8373 8.95048 16.8303 8.95464 16.8225C9.91745 15.0224 11.4226 13.9338 13.3911 13.43C17.3774 13.1594 20.4965 15.8863 21.2597 19.8146C21.5989 21.5634 21.2926 23.2857 20.9685 25.1091C20.7165 26.5259 20.4561 27.9908 20.5136 29.4956C20.557 30.6347 20.797 31.7448 21.2285 32.8029C19.8957 34.0708 17.7425 35.476 16.0445 35.476Z" fill="white"/>
<path d="M46.843 27.8749C46.7133 27.8543 46.3278 27.7909 46.265 27.7806C49.8161 23.7704 51.4498 18.0131 50.532 12.7014C50.4511 12.2336 50.141 11.8458 49.7025 11.664C49.2672 11.4836 48.7779 11.5375 48.3953 11.8071C45.5006 13.8332 41.5096 12.9997 38.5133 11.8456V2.62846C38.5133 1.17914 37.3341 0 35.8848 0C34.4355 0 33.2563 1.17914 33.2563 2.62846V9.27994C32.504 8.86584 31.7543 8.4435 31.0217 8.02999C29.5459 7.19692 28.02 6.33548 26.4774 5.55041C22.2359 3.3919 18.6895 2.28537 15.3172 2.06795C12.5715 1.8912 9.9102 2.35381 7.62007 3.40589C7.24673 3.57738 7.08317 4.01906 7.25456 4.3924C7.42606 4.76564 7.86774 4.9294 8.24108 4.75791C10.3078 3.80849 12.7217 3.3918 15.2214 3.55268C18.3851 3.75661 21.7474 4.81276 25.8026 6.87634C27.3165 7.64683 28.8282 8.50023 30.2903 9.32557C31.2585 9.87219 32.2561 10.4339 33.2563 10.9743V12.2599C33.2563 13.0667 32.8526 13.8101 32.1763 14.2487C30.2262 15.5134 29.0619 17.654 29.0619 19.975V22.8256C29.0619 23.4894 29.6019 24.0294 30.2657 24.0294H30.7512V27.2665C30.7512 27.6774 31.0842 28.0104 31.4951 28.0104C31.906 28.0104 32.239 27.6774 32.239 27.2665V24.0294H33.6772V27.2665C33.6772 27.6774 34.0102 28.0104 34.4211 28.0104C34.832 28.0104 35.165 27.6774 35.165 27.2665V24.0294H36.6042V27.2665C36.6042 27.6774 36.9372 28.0104 37.3481 28.0104C37.7591 28.0104 38.092 27.6774 38.092 27.2665V24.0294H39.5302V27.2665C39.5302 27.6774 39.8632 28.0104 40.2741 28.0104C40.6851 28.0104 41.018 27.6774 41.018 27.2665V24.0294H41.504C42.1676 24.0294 42.7077 23.4894 42.7077 22.8256V19.975C42.7077 17.654 41.5434 15.5134 39.5933 14.2486C39.3158 14.0686 39.0851 13.8367 38.9084 13.5707C43.0471 14.9726 46.5434 14.8268 49.0953 13.1305C49.8825 18.0199 48.3318 23.2935 45.027 26.933C44.6851 27.308 44.5766 27.8377 44.7438 28.3155C44.9103 28.7914 45.3237 29.1365 45.8229 29.2162C45.9526 29.2368 46.3498 29.3021 46.4193 29.3135C43.664 32.6983 39.3397 36.8593 34.1734 37.8337C33.7697 37.9099 33.5041 38.2989 33.5803 38.7026C33.6476 39.0598 33.9598 39.3087 34.3104 39.3087C34.3561 39.3087 34.4027 39.3045 34.4491 39.2957C40.1397 38.2224 44.7978 33.6982 47.7033 30.0919C48.0147 29.7054 48.0934 29.1986 47.9136 28.7359C47.7331 28.2718 47.3314 27.9496 46.843 27.8749ZM41.2198 19.975V22.5416C37.6735 22.5416 34.1133 22.5416 30.5498 22.5416V19.975C30.5498 18.1603 31.4606 16.4862 32.986 15.4969C34.0868 14.7829 34.7441 13.5729 34.7441 12.2599V2.62846C34.7441 1.99951 35.2558 1.48781 35.8848 1.48781C36.5138 1.48781 37.0255 1.99951 37.0255 2.62846C37.0255 2.62846 37.0286 12.3796 37.0297 12.3969C37.0739 13.6565 37.7212 14.8078 38.7836 15.4968C40.3091 16.4862 41.2198 18.1603 41.2198 19.975Z" fill="white"/>
<path d="M17.9028 29.0116C16.6527 29.6051 15.4373 29.6051 14.1872 29.0116C13.8158 28.8355 13.3723 28.9934 13.1961 29.3645C13.0199 29.7357 13.1778 30.1794 13.5491 30.3556C14.3772 30.7488 15.2112 30.9454 16.045 30.9454C16.8789 30.9454 17.7129 30.7488 18.541 30.3556C18.9121 30.1795 19.0701 29.7357 18.894 29.3645C18.7176 28.9934 18.2739 28.8355 17.9028 29.0116Z" fill="white"/>
<path d="M12.3328 22.0922C11.9218 22.0922 11.5889 22.4252 11.5889 22.8361V23.9127C11.5889 24.3236 11.9218 24.6566 12.3328 24.6566C12.7437 24.6566 13.0767 24.3236 13.0767 23.9127V22.8361C13.0767 22.4252 12.7437 22.0922 12.3328 22.0922Z" fill="white"/>
<path d="M13.4203 20.5055C13.5388 20.5752 13.6687 20.6084 13.7969 20.6084C14.0518 20.6084 14.3 20.4772 14.4388 20.2416C14.6471 19.8875 14.5289 19.4315 14.1748 19.2232C12.97 18.5146 11.6967 18.5146 10.4918 19.2232C10.1377 19.4315 10.0195 19.8875 10.2278 20.2416C10.4362 20.5957 10.892 20.7138 11.2462 20.5056C11.9878 20.0693 12.6788 20.0693 13.4203 20.5055Z" fill="white"/>
</svg>
