<svg width="50" height="50" viewBox="0 0 50 50" fill="none" xmlns="http://www.w3.org/2000/svg">
<path d="M2.93674 25.3164L1.1401 28.9088C0.927208 29.3346 0.81264 29.8027 0.804857 30.2786C0.797075 30.7546 0.896275 31.2262 1.09514 31.6587C1.294 32.0911 1.58744 32.4734 1.95382 32.7773C2.32019 33.0812 2.75013 33.299 3.2119 33.4145L4.12913 33.643L5.11474 39.0651C5.29689 40.0696 5.82606 40.9782 6.60986 41.6323C7.39366 42.2864 8.38229 42.6444 9.40317 42.6439C9.60914 42.644 9.81484 42.6292 10.0187 42.5996L14.8832 41.9053C15.6757 43.252 16.093 44.7864 16.0917 46.349V49.8851H17.7008V46.3449C17.7005 44.693 17.3043 43.0652 16.5454 41.5979L19.4709 41.0186L19.1491 39.4416L15.1463 40.2414L9.78695 41.0073C9.08522 41.1008 8.37432 40.9224 7.7999 40.5086C7.22548 40.0948 6.83102 39.4771 6.69736 38.7819L5.61841 32.8449C5.59072 32.6927 5.51975 32.5517 5.41401 32.4389C5.30828 32.326 5.17225 32.246 5.02222 32.2084L3.60213 31.8528C3.37419 31.7958 3.16197 31.6883 2.98113 31.5384C2.80029 31.3884 2.65544 31.1997 2.55728 30.9862C2.45912 30.7727 2.41016 30.54 2.414 30.305C2.41785 30.0701 2.47441 29.8391 2.5795 29.6289L5.55163 23.6935C5.64663 23.5026 5.66197 23.2818 5.59427 23.0796C5.08734 21.5632 4.82842 19.9749 4.82751 18.376C4.82663 16.6868 5.39779 15.0471 6.44794 13.7239L10.3204 24.7467C11.9828 29.5042 14.5892 33.8767 17.9832 37.602C21.3772 41.3272 25.4888 44.3284 30.0713 46.4254L30.5822 50.0002L32.1753 49.7717L31.8036 47.1713C32.2509 47.3507 32.6958 47.5325 33.1512 47.695C37.2098 49.1466 41.4882 49.8875 45.7985 49.8851H49.0796C49.2654 49.8853 49.4456 49.8211 49.5895 49.7034C49.7334 49.5858 49.8321 49.4219 49.8689 49.2397C49.9057 49.0576 49.8782 48.8683 49.7913 48.704C49.7043 48.5397 49.5631 48.4107 49.3917 48.3387L41.8464 45.1614C40.6222 44.6431 39.4632 43.9829 38.3931 43.1942C41.7896 44.5556 45.3545 45.4514 48.9911 45.8574C49.0204 45.8606 49.05 45.8622 49.0796 45.8622C49.2624 45.8641 49.4404 45.8036 49.5843 45.6908C49.7281 45.578 49.8293 45.4195 49.8711 45.2415C49.9129 45.0635 49.8928 44.8766 49.8141 44.7116C49.7355 44.5465 49.603 44.4132 49.4384 44.3335C46.9624 43.0946 44.715 41.4437 42.7925 39.4513C44.6326 40.7314 46.7552 41.5471 48.979 41.8288C49.1529 41.8506 49.3292 41.815 49.481 41.7274C49.6328 41.6398 49.7518 41.505 49.82 41.3436C49.8882 41.1821 49.9018 41.0028 49.8588 40.8329C49.8158 40.663 49.7185 40.5118 49.5816 40.4023C47.0818 38.4074 45.2377 35.7087 44.2875 32.655L43.9037 31.4288C42.512 26.9722 41.3556 22.4455 40.4391 17.8675C39.4206 12.834 36.6949 8.30668 32.7231 5.05115C28.7512 1.79562 23.7769 0.0116755 18.6414 0.000976562C13.6994 0.00757566 8.96174 1.97369 5.46723 5.4682C1.97273 8.96271 0.00660894 13.7004 9.83871e-06 18.6424C-0.00184434 19.8979 0.258396 21.14 0.764083 22.2893C1.26977 23.4385 2.00977 24.4695 2.93674 25.3164ZM18.6414 1.61014C23.4052 1.62087 28.0191 3.27612 31.7033 6.29609C35.3876 9.31606 37.916 13.5155 38.8614 18.1845C39.7889 22.8177 40.9593 27.3989 42.3677 31.9091L42.7515 33.1361C43.4844 35.4917 44.7048 37.6667 46.3335 39.5197C43.7072 38.5135 41.5037 36.6398 40.0883 34.2094L34.4885 24.5408C34.3846 24.3632 34.2167 24.2322 34.0193 24.1746C33.8219 24.117 33.6099 24.1372 33.4269 24.231C33.2439 24.3249 33.1038 24.4852 33.0353 24.6791C32.9668 24.873 32.9752 25.0858 33.0587 25.2737L36.6085 33.1586C38.4853 37.3206 41.4193 40.9184 45.1186 43.5941C40.3925 42.5625 35.903 40.6499 31.8848 37.9564C29.2286 34.0867 27.3315 29.7476 26.2946 25.1699L24.9268 19.1356L23.3562 19.4928L24.724 25.5272C25.5024 28.947 26.742 32.2452 28.409 35.331C24.2787 31.8244 20.9296 27.4908 18.5778 22.6098L16.8158 18.961L15.3675 19.661L17.1288 23.3097C20.7318 30.8111 26.5768 37.0075 33.8552 41.0419C35.8012 43.4988 38.3348 45.4258 41.222 46.6451L45.0784 48.2687C37.7469 48.1222 30.6351 45.7399 24.6947 41.4406C18.7544 37.1413 14.2689 31.1302 11.8386 24.2117L7.70872 12.4591L9.36616 11.0785L8.33468 9.84263L6.49862 11.3713C5.47047 12.2259 4.64344 13.2967 4.07645 14.5075C3.50946 15.7182 3.21646 17.0391 3.21834 18.376C3.21815 20.0348 3.46852 21.684 3.96097 23.2679L3.68983 23.8102C2.35195 22.4228 1.60585 20.5697 1.60918 18.6424C1.61429 14.1267 3.41039 9.79746 6.60344 6.60441C9.79649 3.41135 14.1257 1.61525 18.6414 1.61014Z" fill="white"/>
<path d="M13.6776 9.65584C14.172 9.65683 14.6508 9.8286 15.033 10.1421C15.4152 10.4555 15.6774 10.8915 15.7752 11.376L16.1075 13.0351C16.1444 13.217 16.2431 13.3805 16.3868 13.4979C16.5305 13.6154 16.7104 13.6796 16.896 13.6796C17.0816 13.6796 17.2614 13.6154 17.4051 13.4979C17.5488 13.3805 17.6475 13.217 17.6845 13.0351L18.0167 11.3793C18.1138 10.8941 18.3757 10.4574 18.758 10.1433C19.1403 9.82921 19.6195 9.65698 20.1143 9.65584C20.3277 9.65584 20.5323 9.57107 20.6832 9.42018C20.8341 9.26929 20.9189 9.06464 20.9189 8.85125C20.9189 8.63786 20.8341 8.43322 20.6832 8.28233C20.5323 8.13144 20.3277 8.04667 20.1143 8.04667C19.62 8.04567 19.1412 7.8739 18.7589 7.56043C18.3767 7.24696 18.1145 6.81105 18.0167 6.32647L17.6845 4.66742C17.6475 4.48554 17.5488 4.32202 17.4051 4.20456C17.2614 4.08711 17.0816 4.02295 16.896 4.02295C16.7104 4.02295 16.5305 4.08711 16.3868 4.20456C16.2431 4.32202 16.1444 4.48554 16.1075 4.66742L15.7752 6.32325C15.6781 6.80842 15.4162 7.24508 15.0339 7.55919C14.6516 7.87329 14.1724 8.04552 13.6776 8.04667C13.4642 8.04667 13.2596 8.13144 13.1087 8.28233C12.9578 8.43322 12.873 8.63786 12.873 8.85125C12.873 9.06464 12.9578 9.26929 13.1087 9.42018C13.2596 9.57107 13.4642 9.65584 13.6776 9.65584ZM16.896 7.82702C17.1322 8.22037 17.4381 8.56744 17.7987 8.85125C17.4381 9.13507 17.1322 9.48213 16.896 9.87549C16.6597 9.48213 16.3538 9.13507 15.9932 8.85125C16.3538 8.56744 16.6597 8.22037 16.896 7.82702Z" fill="white"/>
<path d="M49.0791 20.1153C48.5848 20.1143 48.106 19.9425 47.7238 19.629C47.3415 19.3156 47.0793 18.8796 46.9816 18.3951L46.6493 16.736C46.6124 16.5541 46.5137 16.3906 46.37 16.2732C46.2263 16.1557 46.0464 16.0916 45.8608 16.0916C45.6752 16.0916 45.4953 16.1557 45.3516 16.2732C45.2079 16.3906 45.1092 16.5541 45.0723 16.736L44.74 18.3919C44.6429 18.877 44.381 19.3137 43.9987 19.6278C43.6164 19.9419 43.1373 20.1141 42.6425 20.1153C42.4291 20.1153 42.2244 20.2 42.0735 20.3509C41.9227 20.5018 41.8379 20.7065 41.8379 20.9199C41.8379 21.1332 41.9227 21.3379 42.0735 21.4888C42.2244 21.6397 42.4291 21.7244 42.6425 21.7244C43.1368 21.7254 43.6156 21.8972 43.9978 22.2107C44.3801 22.5241 44.6423 22.9601 44.74 23.4446L45.0723 25.1037C45.1092 25.2856 45.2079 25.4491 45.3516 25.5665C45.4953 25.684 45.6752 25.7482 45.8608 25.7482C46.0464 25.7482 46.2263 25.684 46.37 25.5665C46.5137 25.4491 46.6124 25.2856 46.6493 25.1037L46.9816 23.4479C47.0787 22.9627 47.3406 22.526 47.7229 22.2119C48.1052 21.8978 48.5843 21.7256 49.0791 21.7244C49.2925 21.7244 49.4972 21.6397 49.6481 21.4888C49.799 21.3379 49.8837 21.1332 49.8837 20.9199C49.8837 20.7065 49.799 20.5018 49.6481 20.3509C49.4972 20.2 49.2925 20.1153 49.0791 20.1153ZM45.8608 21.9441C45.6245 21.5507 45.3186 21.2037 44.9581 20.9199C45.3186 20.636 45.6245 20.289 45.8608 19.8956C46.0971 20.289 46.403 20.636 46.7635 20.9199C46.403 21.2037 46.0971 21.5507 45.8608 21.9441Z" fill="white"/>
<path d="M37.0106 5.63289C37.505 5.63388 37.9838 5.80565 38.366 6.11913C38.7482 6.4326 39.0104 6.86851 39.1082 7.35308L39.4405 9.01213C39.4774 9.19402 39.5761 9.35754 39.7198 9.47499C39.8635 9.59244 40.0434 9.65661 40.229 9.65661C40.4146 9.65661 40.5944 9.59244 40.7381 9.47499C40.8818 9.35754 40.9805 9.19402 41.0175 9.01213L41.3498 7.3563C41.4469 6.87114 41.7088 6.43448 42.0911 6.12037C42.4733 5.80626 42.9525 5.63403 43.4473 5.63289C43.6607 5.63289 43.8653 5.54812 44.0162 5.39723C44.1671 5.24634 44.2519 5.04169 44.2519 4.8283C44.2519 4.61491 44.1671 4.41027 44.0162 4.25938C43.8653 4.10849 43.6607 4.02372 43.4473 4.02372C42.953 4.02272 42.4742 3.85095 42.0919 3.53748C41.7097 3.22401 41.4475 2.7881 41.3498 2.30352L41.0175 0.644473C40.9805 0.462591 40.8818 0.299069 40.7381 0.181616C40.5944 0.0641625 40.4146 0 40.229 0C40.0434 0 39.8635 0.0641625 39.7198 0.181616C39.5761 0.299069 39.4774 0.462591 39.4405 0.644473L39.1082 2.3003C39.0111 2.78547 38.7492 3.22213 38.3669 3.53624C37.9846 3.85034 37.5054 4.02257 37.0106 4.02372C36.7972 4.02372 36.5926 4.10849 36.4417 4.25938C36.2908 4.41027 36.2061 4.61491 36.2061 4.8283C36.2061 5.04169 36.2908 5.24634 36.4417 5.39723C36.5926 5.54812 36.7972 5.63289 37.0106 5.63289ZM40.229 3.80407C40.4652 4.19742 40.7711 4.54449 41.1317 4.8283C40.7711 5.11212 40.4652 5.45918 40.229 5.85254C39.9927 5.45918 39.6868 5.11212 39.3262 4.8283C39.6868 4.54449 39.9927 4.19742 40.229 3.80407Z" fill="white"/>
</svg>
