<svg width="40" height="50" viewBox="0 0 40 50" fill="none" xmlns="http://www.w3.org/2000/svg">
<path d="M39.1522 45.0504L33.5049 30.2023C34.0628 29.8687 34.5478 29.4261 34.9308 28.9008C35.3423 28.3353 35.6239 27.686 35.7556 26.9991C35.8874 26.3123 35.866 25.6049 35.693 24.9273C35.5468 24.3348 35.5714 23.713 35.7639 23.1339C35.9565 22.5548 36.3091 22.042 36.781 21.6551C37.3272 21.2073 37.7671 20.6438 38.0689 20.0052C38.3707 19.3666 38.5267 18.669 38.5259 17.9627C38.525 17.2564 38.3671 16.5591 38.0638 15.9213C37.7604 15.2835 37.3191 14.7211 36.7718 14.2747C36.3016 13.8862 35.951 13.3725 35.7606 12.7931C35.5701 12.2137 35.5476 11.5922 35.6956 11.0005C35.8672 10.3241 35.8877 9.61815 35.7555 8.9329C35.6234 8.24766 35.3419 7.59994 34.9311 7.0358C34.5099 6.45632 33.966 5.97685 33.3383 5.63154C32.7106 5.28624 32.0145 5.0836 31.2995 5.03805C30.6844 4.99665 30.093 4.78495 29.5914 4.42662C29.0897 4.06829 28.6977 3.57747 28.459 3.00905C28.1919 2.35834 27.786 1.77375 27.2697 1.29607C26.7533 0.81839 26.139 0.459118 25.4695 0.243321C24.7904 0.0212841 24.0711 -0.0499854 23.3617 0.0344808C22.6522 0.118947 21.9697 0.357117 21.3618 0.732388C20.8317 1.05626 20.2225 1.22762 19.6013 1.22762C18.9801 1.22762 18.3709 1.05626 17.8408 0.732388C17.2329 0.357102 16.5504 0.118924 15.841 0.034457C15.1315 -0.0500096 14.4122 0.0212682 13.7331 0.243321C13.0639 0.459295 12.4498 0.818634 11.9336 1.29629C11.4175 1.77394 11.0117 2.35842 10.7447 3.00897C10.5053 3.57845 10.1121 4.07 9.60903 4.42851C9.10598 4.78702 8.513 4.9983 7.89659 5.03868C7.18285 5.08494 6.48807 5.28794 5.8617 5.63323C5.23533 5.97852 4.69275 6.45761 4.27258 7.03643C3.86113 7.60192 3.57949 8.25122 3.44774 8.93804C3.316 9.62486 3.33738 10.3323 3.51038 11.0099C3.6566 11.6024 3.63202 12.2242 3.43947 12.8033C3.24692 13.3825 2.89429 13.8952 2.42241 14.2822C1.87617 14.7299 1.43627 15.2935 1.1345 15.932C0.832737 16.5706 0.676651 17.2682 0.677533 17.9745C0.678416 18.6808 0.836244 19.3781 1.1396 20.0159C1.44297 20.6537 1.88428 21.2161 2.43162 21.6625C2.90176 22.051 3.25231 22.5646 3.44276 23.144C3.63321 23.7233 3.65576 24.3448 3.50781 24.9364C3.3362 25.6129 3.31573 26.3188 3.44786 27.004C3.57999 27.6893 3.86146 28.337 4.27227 28.9011C4.65538 29.4262 5.14041 29.8685 5.69837 30.2019L0.0512132 45.0504C-0.00200412 45.19 -0.0140516 45.342 0.0164999 45.4882C0.0470515 45.6345 0.11892 45.7689 0.223575 45.8755C0.32823 45.9821 0.461278 46.0565 0.606929 46.0897C0.752579 46.123 0.904717 46.1138 1.04528 46.0632L7.1962 43.8522L10.322 49.5922C10.3891 49.7156 10.4882 49.8186 10.6089 49.8903C10.7296 49.9621 10.8674 50 11.0079 50C11.0254 50 11.0429 49.9992 11.0605 49.9981C11.2096 49.9881 11.3527 49.9354 11.4727 49.8465C11.5928 49.7576 11.6849 49.6361 11.738 49.4965L17.0252 35.6026C17.309 35.4953 17.5823 35.3619 17.8416 35.2042C18.3716 34.8805 18.9806 34.7092 19.6017 34.7092C20.2227 34.7092 20.8318 34.8805 21.3618 35.2042L21.3626 35.2046C21.6212 35.3602 21.8935 35.4916 22.1762 35.5972L27.4654 49.4958C27.5185 49.6354 27.6106 49.7569 27.7306 49.8458C27.8507 49.9347 27.9938 49.9874 28.1429 49.9974C28.1604 49.9985 28.1779 49.9993 28.1955 49.9993C28.336 49.9993 28.4738 49.9614 28.5945 49.8896C28.7152 49.8179 28.8143 49.7149 28.8814 49.5915L32.0072 43.8515L38.1581 46.0625C38.2987 46.1131 38.4508 46.1223 38.5965 46.089C38.7421 46.0558 38.8752 45.9814 38.9798 45.8748C39.0845 45.7682 39.1563 45.6338 39.1869 45.4875C39.2174 45.3413 39.2054 45.19 39.1522 45.0504ZM10.882 47.3533L8.24832 42.5174C8.1591 42.3537 8.01436 42.2274 7.84019 42.1611C7.66603 42.0948 7.47391 42.0929 7.29846 42.1557L2.11498 44.0185L7.14948 30.7823C7.39769 30.8404 7.65 30.8794 7.90417 30.8989C8.51926 30.9403 9.1107 31.152 9.61234 31.5103C10.114 31.8687 10.506 32.3595 10.7447 32.9279C11.0118 33.5786 11.4176 34.1631 11.9339 34.6408C12.4502 35.1184 13.0645 35.4777 13.7339 35.6936C14.2167 35.8495 14.7206 35.93 15.228 35.9325L10.882 47.3533ZM17.0199 33.8749C16.6052 34.131 16.1395 34.2935 15.6555 34.351C15.1715 34.4085 14.6808 34.3596 14.2176 34.2078C13.764 34.062 13.3478 33.819 12.9978 33.4958C12.6478 33.1726 12.3725 32.7769 12.1912 32.3363C11.8402 31.4971 11.2624 30.7722 10.5226 30.2429C9.78282 29.7136 8.91021 29.4007 8.00261 29.3395C7.51733 29.3084 7.04487 29.1707 6.61881 28.9363C6.19276 28.7019 5.82357 28.3766 5.53751 27.9833C5.2608 27.6031 5.07145 27.1665 4.98297 26.7046C4.89448 26.2427 4.90905 25.767 5.02563 25.3114C5.24345 24.432 5.20801 23.5088 4.92342 22.6487C4.63883 21.7885 4.11669 21.0264 3.41734 20.4504C3.04864 20.1492 2.75167 19.7697 2.54803 19.3394C2.34439 18.9091 2.23918 18.4388 2.24005 17.9627C2.24093 17.4866 2.34787 17.0168 2.55309 16.5872C2.75832 16.1576 3.05667 15.7792 3.42648 15.4794C4.12414 14.902 4.64428 14.139 4.92686 13.2786C5.20943 12.4182 5.24292 11.4955 5.02344 10.6168C4.90821 10.1624 4.89455 9.68813 4.98343 9.22779C5.0723 8.76745 5.26154 8.33236 5.53767 7.95347C5.82484 7.55937 6.19541 7.23346 6.62296 6.99898C7.05051 6.76449 7.52452 6.6272 8.0112 6.59689C8.91738 6.53448 9.7883 6.22115 10.5265 5.69196C11.2648 5.16277 11.8412 4.43859 12.1913 3.60046C12.3725 3.15987 12.6478 2.76416 12.9978 2.44098C13.3478 2.11779 13.7641 1.87493 14.2177 1.72935C14.6811 1.57769 15.1719 1.52892 15.656 1.58643C16.1402 1.64393 16.6059 1.80634 17.0208 2.06232C17.7982 2.53703 18.6914 2.78819 19.6022 2.78819C20.5131 2.78819 21.4063 2.53703 22.1837 2.06232C22.5985 1.8064 23.0641 1.64403 23.5481 1.58653C24.032 1.52902 24.5227 1.57776 24.986 1.72935C25.4395 1.87518 25.8558 2.11818 26.2058 2.44141C26.5557 2.76464 26.831 3.16031 27.0124 3.60085C27.3633 4.44009 27.9411 5.165 28.6809 5.69431C29.4207 6.22363 30.2933 6.53644 31.2009 6.59767C31.6862 6.62882 32.1587 6.76648 32.5847 7.00087C33.0108 7.23527 33.38 7.56064 33.666 7.95386C33.9428 8.33409 34.1321 8.77073 34.2206 9.23259C34.3091 9.69446 34.2945 10.1702 34.1779 10.6258C33.9601 11.5052 33.9955 12.4283 34.2801 13.2885C34.5647 14.1487 35.0868 14.9108 35.7862 15.4868C36.1549 15.788 36.4519 16.1675 36.6555 16.5978C36.8592 17.0281 36.9644 17.4984 36.9635 17.9745C36.9626 18.4505 36.8557 18.9204 36.6505 19.35C36.4452 19.7795 36.1469 20.158 35.7771 20.4578C35.0794 21.0352 34.5593 21.7981 34.2767 22.6584C33.9941 23.5188 33.9605 24.4415 34.1799 25.3201C34.2952 25.7746 34.3089 26.2488 34.22 26.7092C34.1311 27.1695 33.9419 27.6046 33.6657 27.9835C33.3786 28.3776 33.008 28.7035 32.5805 28.938C32.1529 29.1725 31.6789 29.3098 31.1922 29.3401C30.286 29.4025 29.4151 29.7158 28.6768 30.245C27.9386 30.7742 27.3622 31.4984 27.0121 32.3365C26.8309 32.7771 26.5556 33.1728 26.2056 33.496C25.8556 33.8192 25.4393 34.062 24.9856 34.2076C24.5224 34.3597 24.0315 34.4087 23.5473 34.3512C23.0631 34.2937 22.5973 34.131 22.1826 33.8746C21.4052 33.4 20.512 33.1489 19.6012 33.1489C18.6904 33.149 17.7972 33.4002 17.0199 33.8749ZM31.9049 42.1554C31.7295 42.0925 31.5373 42.0943 31.3632 42.1607C31.189 42.227 31.0442 42.3534 30.9551 42.517L28.3214 47.353L23.976 35.9343C24.4832 35.9313 24.9869 35.8503 25.4695 35.694C26.139 35.4781 26.7534 35.1187 27.2698 34.641C27.7862 34.1632 28.1922 33.5786 28.4595 32.9279C28.6985 32.3584 29.0916 31.8667 29.5945 31.5082C30.0975 31.1497 30.6904 30.9385 31.3068 30.8983C31.5585 30.8789 31.8084 30.8403 32.0542 30.7828L37.0884 44.0183L31.9049 42.1554Z" fill="white"/>
<path d="M31.3205 17.9686C31.3205 15.6508 30.6332 13.3851 29.3455 11.458C28.0579 9.53081 26.2276 8.02878 24.0863 7.14181C21.9449 6.25483 19.5887 6.02276 17.3154 6.47494C15.0422 6.92711 12.9541 8.04322 11.3152 9.68213C9.67628 11.321 8.56017 13.4091 8.10799 15.6824C7.65582 17.9556 7.88789 20.3119 8.77486 22.4532C9.66183 24.5946 11.1639 26.4248 13.091 27.7125C15.0182 29.0002 17.2839 29.6875 19.6017 29.6875C22.7086 29.684 25.6874 28.4482 27.8843 26.2513C30.0813 24.0543 31.3171 21.0756 31.3205 17.9686ZM19.6017 28.1249C17.5929 28.1249 15.6293 27.5293 13.9591 26.4133C12.2889 25.2973 10.9871 23.7111 10.2184 21.8553C9.44973 19.9994 9.2486 17.9573 9.64048 15.9872C10.0324 14.0171 10.9997 12.2074 12.4201 10.787C13.8404 9.36661 15.6501 8.39931 17.6203 8.00743C19.5904 7.61554 21.6325 7.81667 23.4883 8.58538C25.3442 9.35409 26.9304 10.6559 28.0464 12.3261C29.1623 13.9963 29.758 15.9599 29.758 17.9686C29.755 20.6613 28.684 23.2428 26.7799 25.1469C24.8759 27.0509 22.2944 28.1219 19.6017 28.1249Z" fill="white"/>
<path d="M25.815 15.378L22.0056 14.8245L20.302 11.3729C20.2301 11.2511 20.1277 11.1501 20.0049 11.0799C19.8821 11.0098 19.7431 10.9729 19.6016 10.9729C19.4602 10.9729 19.3212 11.0098 19.1983 11.0799C19.0755 11.1501 18.9731 11.2511 18.9012 11.3729L17.1976 14.8245L13.3882 15.378C13.2439 15.3989 13.1082 15.4597 12.9967 15.5537C12.8852 15.6476 12.8021 15.7709 12.757 15.9096C12.7119 16.0483 12.7066 16.1969 12.7415 16.3385C12.7765 16.4801 12.8504 16.6091 12.9548 16.7108L15.7121 19.3976L15.0613 23.1913C15.0368 23.3349 15.0529 23.4825 15.1078 23.6174C15.1627 23.7524 15.2542 23.8693 15.372 23.9549C15.4898 24.0406 15.6293 24.0916 15.7745 24.1022C15.9198 24.1128 16.0652 24.0826 16.1942 24.0149L19.6016 22.2239L23.0089 24.0149C23.1379 24.0826 23.2833 24.1128 23.4286 24.1022C23.5738 24.0916 23.7133 24.0406 23.8311 23.9549C23.9489 23.8693 24.0404 23.7524 24.0953 23.6174C24.1502 23.4825 24.1663 23.3349 24.1417 23.1913L23.491 19.3976L26.2482 16.7108C26.3527 16.6091 26.4266 16.4801 26.4616 16.3385C26.4965 16.1969 26.4911 16.0483 26.446 15.9096C26.401 15.7709 26.3179 15.6476 26.2064 15.5537C26.0948 15.4597 25.9594 15.3989 25.815 15.378ZM22.1064 18.5655C22.0158 18.654 21.9481 18.7632 21.909 18.8837C21.8699 19.0041 21.8607 19.1323 21.882 19.2571L22.3345 21.8954L19.9648 20.6498C19.8527 20.5909 19.728 20.5601 19.6015 20.5601C19.4749 20.5601 19.3502 20.5909 19.2382 20.6498L16.8688 21.8951L17.3212 19.2568C17.3426 19.132 17.3333 19.0038 17.2943 18.8833C17.2552 18.7629 17.1874 18.6537 17.0968 18.5652L15.1797 16.6968L17.8287 16.3118C17.9541 16.2937 18.0732 16.2452 18.1757 16.1707C18.2782 16.0962 18.361 15.9979 18.4169 15.8842L19.6016 13.4842L20.7865 15.8843C20.8424 15.998 20.9252 16.0963 21.0277 16.1709C21.1302 16.2454 21.2493 16.2938 21.3747 16.312L24.0237 16.6969L22.1064 18.5655Z" fill="white"/>
</svg>
