<svg width="50" height="50" viewBox="0 0 50 50" fill="none" xmlns="http://www.w3.org/2000/svg">
<path d="M42.6776 7.32236C37.9557 2.60049 31.6776 0 25 0C14.6274 0 5.07422 6.64805 1.51035 16.4036C0.50625 19.1521 0 22.0747 0 25C0 38.4152 11.5848 50 25 50C29.5475 50 34.0324 48.7355 37.97 46.3434C41.9217 43.9426 45.1202 40.5267 47.2198 36.4655C49.0387 32.9503 50 28.9856 50 25C50 18.3224 47.3995 12.0443 42.6776 7.32236ZM45.4851 35.5682C43.5502 39.3109 40.6009 42.4597 36.9561 44.674C33.324 46.8806 29.1897 48.0469 25 48.0469C12.6494 48.0469 1.95312 37.3506 1.95312 25C1.95312 12.4364 12.4363 1.95312 25 1.95312C31.156 1.95312 36.9435 4.35049 41.2965 8.70342C45.6496 13.0564 48.0469 18.844 48.0469 25C48.0469 28.6746 47.161 32.3289 45.4851 35.5682Z" fill="white"/>
<path d="M44.3146 28.2258C43.7875 28.112 43.2677 28.4467 43.1536 28.9738C42.9981 29.693 42.8008 30.399 42.5675 31.072C40.0661 38.2907 32.9887 43.4355 25.355 43.5832C15.1778 43.7951 6.37824 35.2118 6.4132 25.0032C6.44767 14.8765 14.9352 6.41274 25.0879 6.41274C33.6313 6.41274 41.213 12.4775 43.1328 20.8613C43.2532 21.387 43.7767 21.7159 44.3027 21.5953C44.8284 21.4749 45.1571 20.951 45.0366 20.4253C42.9151 11.1607 34.5343 4.45972 25.0877 4.45972C13.8733 4.45972 4.49836 13.8084 4.46007 24.9966C4.4216 36.2882 14.1361 45.7677 25.3941 45.536C33.8283 45.3727 41.6492 39.6879 44.413 31.7118C44.672 30.9648 44.8906 30.1826 45.0627 29.3867C45.1766 28.8596 44.8417 28.3398 44.3146 28.2258Z" fill="white"/>
<path d="M25 39.4443C25.5393 39.4443 25.9765 39.007 25.9765 38.4677V33.6378C26.5317 33.6968 27.0692 33.7269 27.5879 33.7269C30.4125 33.7269 32.694 32.853 34.3923 31.1151C38.0609 27.3609 36.5049 21.1298 36.437 20.8663C36.3373 20.48 36.0206 20.1792 35.6249 20.128C35.2315 20.0771 34.8554 20.2551 34.6594 20.5986C34.6221 20.6527 34.3481 21.0329 33.6845 21.5478C33.0177 22.0652 31.8135 22.8258 29.863 23.511C28.283 24.0661 26.9674 25.0968 25.9765 26.5393V23.719C27.0214 22.9017 29.4564 20.567 29.4564 16.5526C29.4564 12.1052 25.7324 9.3489 25.5739 9.23376C25.2316 8.98523 24.7682 8.98523 24.4259 9.23376C24.2674 9.349 20.5434 12.1052 20.5434 16.5526C20.5434 20.567 22.9784 22.9017 24.0233 23.719V26.5405C23.0324 25.0973 21.7165 24.0663 20.1359 23.511C16.5368 22.2466 15.4172 20.7106 15.3394 20.5985C15.1434 20.255 14.7669 20.0771 14.3741 20.1281C13.9784 20.1792 13.6618 20.4801 13.562 20.8664C13.4939 21.1299 11.9379 27.361 15.6066 31.1152C17.305 32.8533 19.5861 33.727 22.4109 33.727C22.9298 33.727 23.4676 33.6968 24.0232 33.6378V38.4677C24.0234 39.0071 24.4606 39.4443 25 39.4443ZM30.5104 25.3537C32.2439 24.7447 33.6907 24.0013 34.8154 23.1422C34.9685 24.9898 34.8405 27.8618 32.9954 29.75C31.9253 30.845 30.5652 31.493 28.8831 31.7028C30.7152 30.3781 31.9076 28.8516 31.9841 28.7523C32.3134 28.3251 32.234 27.7119 31.8069 27.3827C31.3797 27.0534 30.7666 27.1328 30.4373 27.5598C30.4161 27.5874 28.6163 29.8949 26.1887 31.058C26.571 29.2627 27.6261 26.367 30.5104 25.3537ZM22.4966 16.5526C22.4966 14.0535 24.1084 12.1658 25 11.313C25.8915 12.1658 27.5033 14.0535 27.5033 16.5526C27.5033 18.5513 26.7371 20.0175 25.9765 20.9808V17.7027C25.9765 17.1635 25.5393 16.7261 25 16.7261C24.4606 16.7261 24.0234 17.1635 24.0234 17.7027V20.9804C23.2625 20.0168 22.4966 18.5509 22.4966 16.5526ZM19.5612 27.5591C19.2317 27.1327 18.6191 27.0537 18.1922 27.3827C17.7651 27.7119 17.6857 28.3251 18.015 28.7523C18.0915 28.8516 19.2838 30.3779 21.1159 31.7026C19.4339 31.4928 18.0736 30.8447 17.0038 29.75C15.1584 27.8616 15.0305 24.9893 15.1836 23.1422C16.3083 24.0012 17.7552 24.7446 19.4887 25.3537C22.3557 26.3609 23.4166 29.2558 23.8046 31.0538C21.388 29.8902 19.5825 27.5866 19.5612 27.5591Z" fill="white"/>
<path d="M45.5212 24.8095C45.3474 23.9532 44.1742 23.7477 43.7263 24.4983C43.2717 25.2601 44.0297 26.2024 44.8695 25.926C45.3295 25.7745 45.6184 25.2863 45.5212 24.8095Z" fill="white"/>
</svg>
